<?xml version="1.0" encoding="utf-8"?>
<!-- Generator: Adobe Illustrator 18.0.0, SVG Export Plug-In . SVG Version: 6.00 Build 0)  -->
<!DOCTYPE svg PUBLIC "-//W3C//DTD SVG 1.1//EN" "http://www.w3.org/Graphics/SVG/1.1/DTD/svg11.dtd">
<svg version="1.1" id="Layer_1" xmlns="http://www.w3.org/2000/svg" xmlns:xlink="http://www.w3.org/1999/xlink" x="0px" y="0px"
	 viewBox="0 0 250 16.9" enable-background="new 0 0 250 16.9" xml:space="preserve">
<path fill="#EBE4DE" d="M245.7,8.2c0.2,0.1,0.7,0.7,0.2,0.8c0.2,0.2,1.1,0.1,1.1,0.6c-2.8,1.1-8.1,1.1-12,0.9
	c-4-0.1-7.3-1.2-11.9-1.1c-1.5,0.1-3.1,0.2-4.6,0.4c-1.5,0.1-3.2,0-4.6,0.1c-2,0.1-4.1,0.5-6.1,0.6c-11.6,0.4-23.9-0.2-36.4,0
	c-2.5,0-4.8,0.4-7.3,0.4c-7,0-14.2,0.1-21.2,0.1c-9.4,0-18.9-0.6-28.2-0.2c-5.6,0.1-11.2-0.4-16.9,0.1c-0.4-0.2,0.2-0.2,0.4-0.4
	c-17-0.7-36.2,0.2-54.5,0.7c-4.2,0.1-8.5-0.1-12.4-0.2c-2.1-0.1-4.5-0.1-6.8-0.1c-2.7,0-5.2,0.1-7.6-0.1c-1.5-0.1-3.2,0-5,0.1
	c-1.6,0-4.1,0.5-5,0.1c-0.7-0.2-0.6-0.2-0.9-0.7C6,9.8,5.5,10.1,5.7,9.7c0.9,0.2-0.1-0.4,0-0.8c0.4-0.1,2-0.1,2.2-0.4
	c0.5-0.2,0.5,0,0.8,0.1c0.1,0,0.5,0,0.7,0c3.3,0.2,9-1.1,12.6,0.1c0.4,0.1,0.7,0.1,1.5,0.1c2.8-0.1,4-0.2,6.1-0.1
	c3.2,0.1,5.2,0,9.9,0c3.3,0,6.5-0.1,9.6-0.2c3.5-0.1,7.2-0.2,10.6-0.5c2.5-0.2,4.7-0.2,7,0c0,0.2-0.4,0.2-0.7,0.2
	C72.6,8.5,80.1,7.6,86.8,8c0.7,0,1.5,0.2,2.2,0.2c2.3,0.2,5.2-0.5,7.6-0.5c6.6,0,13,0.1,18.4-0.4c8.7-0.1,17.6,0,26.4,0
	c4.7,0,9.3,0.6,14,0.5c4-0.1,8.1-0.5,12.1-0.6c6.1-0.2,12.2-0.1,18.3-0.4c6.1-0.2,12.6,0.4,18.5-0.2c2.2-0.2,4.8,0,7.3,0.2
	c2.3,0.1,4.7,0.2,7,0.2c6.8,0.2,12.6,1.2,19.6,1.1c0.9,0,2-0.1,3.1-0.1c0.7,0,1.8-0.2,2.2,0.2C244.1,7.8,245,8,245.7,8.2z
	 M189.4,7.2c0.2,0,0.2,0.1,0.5,0.1c0.1-0.2,1.5,0,1.3-0.2c-1.5,0-4-0.1-4.8,0.2C187.4,7.2,188.6,7.3,189.4,7.2z M180.5,7.3
	c1.5,0.4,4.1-0.1,5.2-0.2C183.2,7.1,181.2,7.6,180.5,7.3z M203.6,7.3c2.7,0,6.1,0.5,8.7,0C209.7,7.1,205.7,7.1,203.6,7.3z
	 M231.6,8.3c-4.8-0.4-9.4-0.8-14.9-0.7C221,8.3,226.9,8.3,231.6,8.3z M131.4,7.9c3.6,0.2,7.5,0.4,11.2-0.2
	C138.9,7.7,135,7.8,131.4,7.9z M163.9,7.8c-0.9,0.1,0.5,0.1,0.6,0.1c2,0,3.8-0.1,5.3-0.2C168,7.7,165.1,7.7,163.9,7.8z M203.9,7.9
	c-1.1-0.5-3.3,0-4.6-0.2C200.1,8.6,202.3,7.7,203.9,7.9z M188.6,8.2c3.1-0.1,6.6,0.1,9.9,0C195.8,7.3,191.1,7.8,188.6,8.2z
	 M180.1,8.3c-0.5,0-1.3-0.1-1.5,0.1C179,8.3,179.8,8.5,180.1,8.3z M175.5,8.5c-1.2,0.1-2.5-0.2-3.4,0C173.1,8.5,174.8,8.7,175.5,8.5
	z M138.2,8.5c0.8-0.1,2,0.2,2.3-0.1C139.8,8.5,138.2,8.4,138.2,8.5z M185.9,8.5c-0.6,0-1.3,0-1.9,0c0,0.1-0.4,0-0.4,0.2
	C184.1,8.5,185.7,8.6,185.9,8.5z M214.5,8.6c1.6,0,3.4,0.1,5,0C218.1,8.5,215.3,8.5,214.5,8.6z M212.9,9c1.1,0,0.2-0.1-0.4-0.1
	c-1.9-0.1-4.2-0.5-5.9,0C208.5,9.1,210.7,9,212.9,9z M115.9,9c-0.9,0-3.8,0.1-3.4,0.2c4.6,0.4,10-0.4,14.3-0.2
	c0.1,0,0.1-0.1-0.1-0.1C122.8,8.7,119.5,8.7,115.9,9z M61.1,9c-2,0.1,1.2,0.1,1.9,0.1c0.7-0.1,0,0.2,0.5,0.2
	c4.9-0.5,10.1,0,14.8-0.4C72.6,8.9,66.9,8.7,61.1,9z M193.4,9.2c0.7,0,2,0.1,1.8-0.1c-1.3,0-2.8-0.2-4.1,0.1
	C191.5,9.2,192.5,9.2,193.4,9.2z M221.3,9C219.7,8.9,220,9.3,221.3,9L221.3,9z M230,9.2c-0.7-0.1-1.8-0.4-2.5-0.1
	C228.2,9.1,229.3,9.4,230,9.2z M41.8,9.6c2.7-0.4,6.7,0.2,9-0.4C47.8,9.1,44.4,9.2,41.8,9.6z M127.9,9.3c0.1-0.4-0.9-0.2-1.1-0.1
	C127,9.3,127.5,9.3,127.9,9.3z M9.8,9.4c0.9,0.1,9.9,0.1,11,0C19.3,7.9,10.8,9.3,9.8,9.4z M55.4,9.3c0.6,0,1.2,0,1.8,0
	C57,9,55.7,9.2,55.4,9.3z M57.4,9.3c0.1,0.2,1.3,0.1,1.9,0C58.8,9.2,57.4,9.2,57.4,9.3z M171.8,9.2c-0.5,0-1.3-0.1-1.5,0.1
	C170.7,9.2,171.5,9.4,171.8,9.2z M178,9.3c1.1-0.1,2.6,0.1,3.3-0.2C180.1,9.2,178.7,9.1,178,9.3z M7.8,9.4c0,0.1,0.9,0.1,1.1,0
	C8.2,9.7,7.9,9,7.8,9.4z M38.1,9.3c-1.3-0.1-3.4-0.1-4.6,0C34.7,9.8,36.8,9.4,38.1,9.3z M245.1,9.8c-0.4-0.1,0.4-0.2,0.2-0.5
	c-0.1,0-0.4,0-0.5,0C244.8,9.6,244.9,10.1,245.1,9.8z M90.1,9.6c0.5,0,0.9,0,1.4,0c0.8,0-0.1-0.1-0.5-0.1c-0.8,0-2.1-0.1-2.7,0.1
	C88.9,9.7,89.4,9.6,90.1,9.6z M129.2,9.6c-0.8,0.1,1.6,0.1,1.4-0.1C129.9,9.6,129.4,9.6,129.2,9.6z M94.3,9.8c2.6,0.1,6,0.1,8.5,0
	C100.2,9.6,96.8,9.4,94.3,9.8z M120.9,9.7c-2,0-4.3-0.2-6.2,0C116.5,9.8,119.4,9.9,120.9,9.7z M182.6,9.8c0.2,0,0.7,0.1,0.7-0.1
	c-0.4,0-0.7,0-1.1,0c-0.9,0-2.6,0-2.8,0.2C180.7,9.8,181.7,9.9,182.6,9.8z M239,9.8c-0.8-0.1-2-0.1-2.5,0C237,9.9,238.4,9.9,239,9.8
	z M242.9,9.9c0.5,0,1.3,0.1,1.4-0.2C243.7,9.8,242.9,9.6,242.9,9.9z M123.3,10c0.6,0.1,1.8,0,2.2-0.2C124.8,9.9,124,9.8,123.3,10z
	 M192.1,10.1c0.7,0,1.3,0,2,0c1.6,0.2,4.6,0.1,6.2-0.2C197.2,9.8,194.3,9.9,192.1,10.1z M205.6,10c1.5-0.1-1.6-0.1-1.9,0.1
	C204.1,10.1,205,10.1,205.6,10z M54.9,10.1c1.3,0.5,4,0.2,5.4,0C58.6,9.9,56.7,10.3,54.9,10.1z M109.8,10.1c1.2,0.1,2.9,0.2,4.1-0.1
	C112.3,10.1,111.5,10.3,109.8,10.1z M135.7,10.4c3.9,0,8.6,0,12.7-0.1C144.5,9.9,139.3,10.1,135.7,10.4z M166.3,10.1
	c-1.2-0.1-4.2-0.1-5.6,0.2C162.3,10.3,164.3,10.1,166.3,10.1z M41.8,10.4c0.4-0.1,1.1,0.2,1.1-0.2C42.5,10.3,41.7,10,41.8,10.4z"/>
</svg>
