<?xml version="1.0" encoding="UTF-8"?>
<svg version="1.1" viewBox="0 0 2048 1251" width="301" height="184" xmlns="http://www.w3.org/2000/svg">
<path transform="translate(77,839)" d="m0 0h135l51 1 20 1 21 3 15 4 17 8 14 10 10 10 8 13 5 12 3 17v9l-2 14-5 14-8 13-9 10-9 7-9 5 17 11 9 7 8 7 9 13 7 15 3 12 1 14-1 15-3 12-8 17-8 11-12 12-15 10-16 7-18 5-18 3-26 2-64 1h-122l-2-1v-34l1-1 25-1 9-3 2-12v-213l-1-20-1-2-34-2-1-1v-34zm96 42-1 1v94h77l14-1 16-4 12-6 12-11 5-8 3-11v-20l-4-11-6-8-7-6-11-5-9-2-11-1-31-1zm-1 134v107l1 1h56l30-1 17-2 12-3 14-7 10-9 6-9 4-11 1-5v-18l-4-12-6-9-5-5-8-6-8-4-14-4-15-2-17-1z" fill="#3B3C3B"/>
<path transform="translate(1887,88)" d="m0 0h16l15 4 11 7 7 6 7 10 6 12 3 2 9 2 9 5 7 8 2 5v18l-2 2h-6l-8-7-7-7-2-1v15l-3 15-7 14-7 8-8 4-12 3-13-1-9-4-6-7-3-8v-13l4-13 7-12 11-12 9-7 2-2-1-4-6-7-8-4-7-1-10 2-12 6-5 5h-2l-2 4-6 8-5 12-1 4v15l4 10 7 6 13 9 9 9 4 6 1 7-5 5-5 3-8 2 2 10v17l-4 16-7 14-10 13-7 7-14 10-14 7-17 5-12 2h-26l-18-3-16-3-8 9 1 3 16 5 35 6 47 7 26 6 18 6 16 8 9 7 7 7 6 10 4 11 2 15-2 14-5 13-9 13-7 7-15 10-11 5-18 6-23 5-26 3h-45l-23-3-15-4-16-7-14-9-10-10-6-11-3-10v-9l3-11 7-14 8-10 9-9 8-7 3-2 1-3-6-2-9-5-6-5-6-10-3-9v-10l5-13 9-10 8-7 4-3h2l1-5-9-11-7-11-5-12-3-13v-16l2-10 5-14 8-13 11-12 11-9 14-8 18-6 20-3h25l16 2 12 3 2 1v-12l4-15 8-17 9-13 7-8 13-10 12-6zm35 78-9 12-1 4 5 1 7-10 1-4-1-3zm-102 6m-52 32-11 4-8 5-7 7-7 14-2 9v14l4 13 7 11 8 7 10 5 8 2h13l11-4 11-7 8-9 4-9 2-8v-18l-4-13-7-10-7-6-10-5-8-2zm-26 192-8 7-7 8-8 11-4 9v10l6 9 9 6 11 4 15 3 13 1h23l18-2 18-4 13-5 11-7 5-6 2-5-1-9-4-6-6-4-15-5-22-5-49-8-12-2z" fill="#3C3D3C"/>
<path transform="translate(1295,823)" d="m0 0h7l2 1 1 134 21-13 19-9 16-5 12-2h24l14 3 15 6 10 7 9 8 9 13 5 11 2 9 1 19v84l1 36 16 2 18 1 2 1v34l-5 1h-124l-2-1-1-12 1-23 26-1 9-2 2-11 1-26v-68l-1-22-4-10-5-6-10-5-5-1h-15l-18 4-19 9-14 9-10 7v121l37 2 1 13v22l-3 1h-128l-1-1-1-17 1-18 24-1 10-2 1-3 1-20 1-224-4 1h-32l-1-1v-34l7-2 26-5 19-7 9-5 4-1z" fill="#3C3D3C"/>
<path transform="translate(486,61)" d="m0 0h18l1 1v109l-1 25 20-12 16-8 15-6 20-4h21l17 3 14 6 11 8 8 7 9 13 5 12 2 7 1 9 1 128 1 3 15 2 19 1 1 1 1 33-3 2h-128l-1-1v-35l28-1 8-2 1-8 1-54v-57l-2-12-6-10-7-5-11-3h-13l-15 3-15 6-21 12-10 8-1 1-1 120 36 2 3 1v15l-1 19-2 1h-128l-1-1v-35l25-1 11-2 1-247-16 1h-20l-1-1-1-34 25-5 19-5 19-9z" fill="#3D3E3D"/>
<path transform="translate(1175,77)" d="m0 0h137l35 1 26 3 18 5 19 10 12 9 9 9 7 10 7 14 4 14 1 6v28l-4 18-8 17-10 14-10 10-12 9-15 7-19 5-21 3-15 1h-63v93l33 2 5 1v34l-2 1h-134l-1-1v-34l1-1 25-1 10-2 1-3 1-71v-114l-1-58-1-2-31-1-4-1-1-2v-32zm98 41-1 66v45h58l18-2 12-4 8-6 7-7 6-10 4-13 1-8v-12l-3-16-6-12-9-10-14-7-9-2-28-2z" fill="#3C3D3C"/>
<path transform="translate(99,66)" d="m0 0h15l12 1 2 1 1 9 172-1 4-9 11-1h17l3 3 35 98v4l-30 11-5 1-3-4-8-18-9-16-9-11-13-9-13-5-14-3-10-1h-10l-1 35v182l1 29 17 2 17 1 4 1v12l-1 22-2 1h-133l-1-1v-34l1-1 26-1 8-2 2-10 1-237-27 3-15 4-10 6-10 9-8 9-9 16-7 15-3 6-6-1-19-7-10-4-1-2 18-52 13-37 5-12z" fill="#3C3D3C"/>
<path transform="translate(497,931)" d="m0 0h21l1 151 2 18 4 10 6 7 10 5 7 2h17l16-4 13-5 19-10 15-10 3-3-1-111-1-9-13-1-30-1-1-2v-33l1-1 80-3h20l1 1v179l1 11 3 3 11 2 20 1 3 1v33l-1 1-27 2-54 3h-9v-31l-18 11-10 6-19 8-19 5-18 2h-17l-14-2-15-5-11-7-10-9-8-10-7-14-4-15-1-10-1-113-2-12-6-1-36-1-1-1v-34l2-1z" fill="#3B3C3B"/>
<path transform="translate(1624,929)" d="m0 0h28l17 3 16 6 11 6 10 8 9 9 10 15 7 16 4 15 2 15v16l-5 1-152 1 1 17 3 17 5 16 8 15 9 10 9 6 11 5 11 2h11l14-3 12-5 11-7 13-11 14-14 7 1 10 9 8 6 4 4-2 5-16 17-12 12-15 11-15 8-14 5-11 2-11 1h-19l-21-3-17-6-15-8-11-8-12-11-8-10-8-13-7-16-5-18-2-13v-27l3-19 5-16 6-14 9-14 9-11 11-10 16-10 15-7 21-5zm6 38-12 3-8 4-9 7-8 10-4 7v2l3 1h85l-1-7-7-13-9-8-9-4-11-2z" fill="#3C3D3C"/>
<path transform="translate(838,166)" d="m0 0h23l16 2 16 5 12 6 12 9 11 11 9 14 7 15 4 15 3 24v7l-2 2h-156l2 24 4 17 6 16 7 11 8 9 11 7 11 4 7 1h14l16-4 14-7 13-10 15-14 5-5 5 1 14 11 9 7-1 4-8 10-12 13-11 10-14 10-16 8-16 5-12 2h-29l-17-3-17-6-15-8-12-9-11-10-10-13-9-16-7-21-3-16-1-12v-12l2-18 4-17 6-16 6-11 10-14 14-14 17-11 13-6 13-4zm7 38-12 2-12 6-10 9-8 10-2 6 9 1h78l3-2-8-15-9-10-11-5z" fill="#3B3C3B"/>
<path transform="translate(1065,929)" d="m0 0h27l14 2 20 6 17 9 14 11 9 10 7 12 2 6 1 13-3 9-7 9-5 4-9 4h-10l-9-4-7-6-8-13-8-16-9-10-10-5-7-2h-16l-13 4-11 6-10 10-8 14-5 12-3 14-1 9v21l3 18 5 14 6 11 7 9 10 9 12 6 13 3h11l18-4 14-6 11-8 10-9 12-12 5-6 5 1 10 8 12 9 2 4-11 13-9 11-7 7-10 8-15 10-15 7-21 6-18 2h-16l-16-2-16-5-17-8-12-9-12-11-8-9-10-15-8-18-4-13-3-18v-23l2-14 4-15 6-15 9-16 9-11 6-7 13-10 15-9 14-6 22-5z" fill="#3C3D3C"/>
<path transform="translate(819,859)" d="m0 0 31 1 1 1v73h59l6 1v38h-65v123l1 15 3 10 5 5 5 2h13l13-4 17-9 16-13 2 2v40l-4 5-16 9-19 7-14 3-10 1h-12l-16-3-12-5-12-9-7-8-4-8-3-11-1-8-1-26v-118l-16 1h-21l-1-3v-30l2-2 16-5 14-7 10-9 7-11 7-21 5-26z" fill="#3C3D3C"/>
<path transform="translate(1862,928)" d="m0 0 5 1v21l-1 6 16-10 16-9 16-6 9-2h20l13 4 10 7 8 11 2 5 1 8-2 9-6 9-8 7-7 3h-14l-11-4-16-8h-8l-12 6-13 10-9 8-1 2-1 36v49l1 29 1 5 14 2 18 1 4 1v34l-13 1h-116l-2-1v-35l27-1 7-3 2-7 1-29 1-106-9 1h-28l-1-4v-29l1-2 21-3 17-5 24-11z" fill="#3C3D3C"/>
<path transform="translate(1561,166)" d="m0 0h28l1 188 1 8 9 2 22 1 5 1v34l-1 1h-129v-35l1-1 28-1 6-2 1-9 1-134-2 1h-34l-1-2v-31l2-2 23-4 20-6z" fill="#3B3C3B"/>
<path transform="translate(1238,533)" d="m0 0h5l1 163 1 6 17 3 3 2 1 5-3 3-23 2h-18l-1-5 2-13-17 11-11 5-13 3h-13l-12-3-10-6-7-7-7-11-5-11-3-11-1-7v-10l3-16 5-12 7-11 10-10 11-6 12-3h20l12 3 14 8 2 2 1-52h-19l-3-1-1-3 5-5 27-10zm-57 74-11 4-10 9-6 10-4 11-1 5v22l4 13 6 10 8 8 9 4 7 1 14-3 9-4 11-7 4-5v-53l-3-9-7-8-14-7-5-1z" fill="#3D3E3D"/>
<path transform="translate(981,592)" d="m0 0 4 2 1 21 11-8 13-8 11-4 4-1h23l10 4 8 6 6 9 2 7 1 9v58l1 15 18 3 2 2v7l-2 1h-58l-4-1-1-7 5-2 11-2 4-4 1-2 1-35-1-36-5-10-5-4-6-2-16 1-12 4-12 7-7 5-1 2v69l2 4 8 2 8 1 2 2v7l-3 1h-58l-3-3v-5l2-2 13-2 4-1 1-4 1-85-6 1h-13l-3-5 2-4 24-8z" fill="#3F403F"/>
<path transform="translate(832,594)" d="m0 0h30l12 3 9 5 5 5 5 8 2 8 1 63 2 18 5 1h14l5-1 2 6-3 5-2 1-9 1h-15l-9-3-5-4-6-11-5 1-10 7-12 6-16 4h-19l-11-4-8-6-6-9-2-5-1-10 4-12 8-9 16-8 15-4 26-4 19-2v-14l-2-10-5-8-7-4-8-2h-13l-11 4-4 2-2 5-5 12-4 9-2 2-9-1-5-3-3-9 3-10 6-8 8-7 12-6zm38 61-28 4-17 5-9 5-7 7-1 3v7l3 8 8 7 5 2h12l15-5 15-8 6-4 2-9-1-21z" fill="#3F403F"/>
<path transform="translate(1554,67)" d="m0 0h13l10 3 6 4 7 7 5 10 1 3v13l-4 10-6 8-7 6-11 4h-13l-10-3-9-7-6-9-3-8-1-10 3-10 6-10 7-6 8-4z" fill="#3C3D3C"/>
</svg>
