<?xml version="1.0" encoding="utf-8"?>
<!-- Generator: Adobe Illustrator 18.0.0, SVG Export Plug-In . SVG Version: 6.00 Build 0)  -->
<!DOCTYPE svg PUBLIC "-//W3C//DTD SVG 1.1//EN" "http://www.w3.org/Graphics/SVG/1.1/DTD/svg11.dtd">
<svg version="1.1" id="Layer_1" xmlns="http://www.w3.org/2000/svg" xmlns:xlink="http://www.w3.org/1999/xlink" x="0px" y="0px"
	 viewBox="0 0 63.2 54.4" enable-background="new 0 0 63.2 54.4" xml:space="preserve">
<g>
	<polygon fill="#EBE4DE" points="7.7,39.2 8.5,39.2 10.7,45.3 10.7,39.2 11.4,39.2 11.4,47.3 10.7,47.3 8.5,41.1 8.5,47.3 7.7,47.3 
			"/>
	<g>
		<path fill="#EBE4DE" d="M16.7,43.4v-0.2c0-2.3-0.5-3.3-1.2-3.3c-0.7,0-1.2,1.1-1.2,3.3v0.2c0,2.3,0.5,3.3,1.2,3.3
			C16.2,46.7,16.7,45.6,16.7,43.4 M13.6,43.4v-0.2c0-2.7,0.8-4,2-4s2,1.3,2,4v0.2c0,2.7-0.8,4-2,4S13.6,46.1,13.6,43.4"/>
		<path fill="#EBE4DE" d="M20.7,43.6h-0.3v3h0.2c1.1,0,1.7-0.5,1.7-1.5v-0.1C22.4,44.1,21.7,43.6,20.7,43.6 M22.3,41.4
			c0-0.9-0.6-1.4-1.5-1.4h-0.4v3h0.3C21.7,42.9,22.3,42.4,22.3,41.4L22.3,41.4z M19.6,39.2h1.1c0.7,0,1.3,0.2,1.8,0.7
			c0.3,0.3,0.5,0.8,0.5,1.4v0.1c0,1.2-0.7,1.7-1.4,1.9c0.9,0.2,1.5,0.8,1.5,1.9v0.1c0,1.3-1,2.2-2.5,2.2h-0.9
			C19.6,47.3,19.6,39.2,19.6,39.2z"/>
	</g>
	<polygon fill="#EBE4DE" points="25.1,39.2 25.9,39.2 25.9,46.6 27.8,46.6 27.8,47.3 25.1,47.3 	"/>
	<polygon fill="#EBE4DE" points="29.6,39.2 32.5,39.2 32.5,39.9 30.4,39.9 30.4,42.9 32.3,42.9 32.3,43.6 30.4,43.6 30.4,46.6 
		32.5,46.6 32.5,47.3 29.6,47.3 	"/>
	<rect x="37.7" y="39.2" fill="#EBE4DE" width="0.8" height="8.1"/>
	<polygon fill="#EBE4DE" points="40.8,39.2 41.5,39.2 43.8,45.3 43.8,39.2 44.5,39.2 44.5,47.3 43.8,47.3 41.5,41.1 41.5,47.3 
		40.8,47.3 	"/>
	<polygon fill="#EBE4DE" points="46.8,39.2 47.6,39.2 49.8,45.3 49.8,39.2 50.5,39.2 50.5,47.3 49.9,47.3 47.5,41.1 47.5,47.3 
		46.8,47.3 	"/>
	<g>
		<path fill="#EBE4DE" d="M52.6,47v-0.8c0.6,0.3,0.9,0.5,1.3,0.5c0.6,0,1.1-0.4,1.1-1.1l0,0c0-0.6-0.2-1-1.1-2.1
			c-1.1-1.3-1.3-1.8-1.3-2.6v-0.1c0-1.1,0.8-1.8,1.7-1.8c0.5,0,0.8,0.1,1.2,0.3v0.8c-0.4-0.3-0.8-0.4-1.2-0.4c-0.6,0-0.9,0.4-0.9,1
			v0.1c0,0.5,0.2,0.9,1.1,1.9c1,1.2,1.3,1.9,1.3,2.7l0,0c0,1.1-0.8,1.8-1.8,1.8C53.5,47.4,53.1,47.2,52.6,47"/>
		<path fill="#EBE4DE" d="M38.1,14.7c-0.1-0.3-0.1,0.4-0.1,0.5C38.1,15.5,38.1,14.9,38.1,14.7"/>
		<path fill="#EBE4DE" d="M37.9,15.5C37.9,15.1,38.1,16.1,37.9,15.5"/>
		<path fill="#EBE4DE" d="M40.6,16.9c-0.1,0.1-0.2,0.1-0.2,0.3C40.5,17.1,40.6,17,40.6,16.9"/>
		<path fill="#EBE4DE" d="M27.2,21.1c0-0.1-0.2-0.1-0.3-0.1C27,21.1,27.1,21.1,27.2,21.1"/>
		<path fill="#EBE4DE" d="M27.6,21.2c0-0.1-0.2-0.1-0.3-0.1C27.4,21.2,27.5,21.2,27.6,21.2"/>
		<path fill="#EBE4DE" d="M39.9,22.7c0-0.2-0.3-0.1-0.4-0.1C39.4,22.8,39.8,22.7,39.9,22.7"/>
		<path fill="#EBE4DE" d="M25.5,22.6C25.7,22.8,26.1,22.5,25.5,22.6"/>
		<path fill="#EBE4DE" d="M27.1,23c0-0.1-0.2-0.1-0.3-0.1C26.8,23,27,23,27.1,23"/>
		<path fill="#EBE4DE" d="M27.1,23C27.4,23.2,27.7,22.8,27.1,23"/>
		<path fill="#EBE4DE" d="M27.9,23.1c0-0.1-0.2-0.1-0.3-0.1C27.6,23.1,27.7,23.1,27.9,23.1"/>
		<path fill="#EBE4DE" d="M28,23.1C28.2,23.4,28.6,23,28,23.1"/>
		<path fill="#EBE4DE" d="M28,23.6c-0.1-0.2-0.4-0.1-0.6-0.1C27.5,23.7,27.9,23.5,28,23.6"/>
		<path fill="#EBE4DE" d="M36.3,24.4c0.1,0,0.1-0.2,0.1-0.3C36.3,24.1,36.3,24.3,36.3,24.4"/>
		<path fill="#EBE4DE" d="M27.6,24.1C28.1,24.4,28.5,24,27.6,24.1"/>
		<path fill="#EBE4DE" d="M27.4,24.3c-0.1-0.2-0.4-0.1-0.6-0.1C26.9,24.4,27.2,24.2,27.4,24.3"/>
		<path fill="#EBE4DE" d="M41.5,24.4c0-0.2-0.3-0.1-0.4-0.1C41.1,24.5,41.4,24.3,41.5,24.4"/>
		<path fill="#EBE4DE" d="M26.7,24.4c-0.1-0.2-0.4-0.1-0.6-0.1C26.1,24.5,26.5,24.3,26.7,24.4"/>
		<path fill="#EBE4DE" d="M41.7,24.4C41.8,24.6,42.2,24.3,41.7,24.4"/>
		<path fill="#EBE4DE" d="M26,24.5c-0.1-0.2-0.5-0.1-0.7-0.1C25.4,24.6,25.8,24.4,26,24.5"/>
		<path fill="#EBE4DE" d="M41.9,24.6c0.4,0.2,1.1,0.1,1.5,0.2C43,24.6,42.3,24.4,41.9,24.6"/>
		<path fill="#EBE4DE" d="M40.2,24.8c-0.2-0.2-0.8-0.1-1.2-0.1C39.2,24.9,39.8,24.7,40.2,24.8"/>
		<path fill="#EBE4DE" d="M29.5,25.3c-0.5-0.2-1.3-0.1-1.9-0.1C28,25.5,28.8,25.3,29.5,25.3"/>
		<path fill="#EBE4DE" d="M27.2,25.4c0-0.1-0.2-0.1-0.3-0.1C27,25.4,27.1,25.4,27.2,25.4"/>
		<path fill="#EBE4DE" d="M28.6,25.8C28.7,26.1,29.1,25.7,28.6,25.8"/>
		<path fill="#EBE4DE" d="M28.5,26c0-0.2-0.3-0.1-0.4-0.1C28,26.1,28.4,26,28.5,26"/>
		<path fill="#EBE4DE" d="M41.5,26.1c0-0.1-0.2-0.1-0.3-0.1C41.2,26.1,41.4,26.1,41.5,26.1"/>
		<path fill="#EBE4DE" d="M28,26.1c0-0.2-0.3-0.1-0.4-0.1C27.5,26.2,27.8,26.1,28,26.1"/>
		<path fill="#EBE4DE" d="M26.9,26.1C27.2,26.4,27.5,26,26.9,26.1"/>
		<path fill="#EBE4DE" d="M18.8,26.1c-0.3,0.2,0.1,0.6,0,0.9C19.1,26.8,18.7,26.5,18.8,26.1"/>
		<path fill="#EBE4DE" d="M20.7,27.8C20.6,27.4,20.7,28.3,20.7,27.8"/>
		<path fill="#EBE4DE" d="M34.8,29.7C34.8,29.4,34.9,30.3,34.8,29.7"/>
		<path fill="#EBE4DE" d="M34.8,30.2c-0.1-0.3-0.1,0.4-0.1,0.5C34.8,31,34.8,30.3,34.8,30.2"/>
		<path fill="#EBE4DE" d="M19,30.1c-0.1,0-0.2,0-0.3,0.1C18.9,30.2,19,30.2,19,30.1"/>
		<path fill="#EBE4DE" d="M16.7,30.3c-0.1-0.1-0.2-0.1-0.3-0.1C16.4,30.4,16.5,30.3,16.7,30.3"/>
		<path fill="#EBE4DE" d="M36.6,30.4C36.5,30.2,36.7,31.2,36.6,30.4"/>
		<path fill="#EBE4DE" d="M17.3,30.4c0-0.2-0.3-0.1-0.4-0.1C16.9,30.6,17.2,30.4,17.3,30.4"/>
		<path fill="#EBE4DE" d="M37.2,30.8C37.1,30.6,37.2,31.4,37.2,30.8"/>
		<path fill="#EBE4DE" d="M38.5,30.8c-0.3,0.2,0.1,0.5,0,0.7C38.8,31.4,38.4,31.2,38.5,30.8"/>
		<path fill="#EBE4DE" d="M36.1,31c-0.1-0.3-0.1,0.2-0.1,0.3C36.1,31.7,36.1,31.2,36.1,31"/>
		<path fill="#EBE4DE" d="M34.3,31.1C34.2,30.8,34.3,31.7,34.3,31.1"/>
		<path fill="#EBE4DE" d="M34.7,31.3c-0.1-0.3-0.1,0.3-0.1,0.4C34.8,32,34.7,31.4,34.7,31.3"/>
		<path fill="#EBE4DE" d="M36.7,31.4C36.7,31,36.8,31.9,36.7,31.4"/>
		<path fill="#EBE4DE" d="M34.2,31.5C34.1,31.2,34.3,32.1,34.2,31.5"/>
		<path fill="#EBE4DE" d="M38.7,31.7C38.6,31.4,38.8,32.4,38.7,31.7"/>
		<path fill="#EBE4DE" d="M35.9,31.7c-0.1-0.3-0.1,0.2-0.1,0.3C35.9,32.4,35.9,31.8,35.9,31.7"/>
		<path fill="#EBE4DE" d="M34.7,32C34.7,31.7,34.8,32.5,34.7,32"/>
		<path fill="#EBE4DE" d="M19.4,32c-0.2,0.3,0,1.7,0.1,2.2C19.6,33.4,19.4,32.8,19.4,32"/>
		<path fill="#EBE4DE" d="M34.1,32.1C34.1,31.7,34.2,32.6,34.1,32.1"/>
		<path fill="#EBE4DE" d="M38.8,32.2C38.7,31.8,38.8,32.7,38.8,32.2"/>
		<path fill="#EBE4DE" d="M35.8,32.4C35.8,32.1,36.1,33.1,35.8,32.4"/>
		<path fill="#EBE4DE" d="M35.8,32.9C35.7,32.6,35.8,33.5,35.8,32.9"/>
		<path fill="#EBE4DE" d="M38.9,33C38.9,32.7,39,33.5,38.9,33"/>
		<path fill="#EBE4DE" d="M34,33.2C33.8,32.8,34.1,33.8,34,33.2"/>
		<path fill="#EBE4DE" d="M34.6,33.3c-0.2-0.2-0.1,0.5-0.1,0.7C34.7,34.3,34.6,33.5,34.6,33.3"/>
		<path fill="#EBE4DE" d="M33.8,33.6C33.8,33.3,34,34.4,33.8,33.6"/>
		<path fill="#EBE4DE" d="M46.9,35.4c-0.1-0.1-0.2-0.1-0.2,0C46.8,35.5,46.8,35.4,46.9,35.4"/>
		<path fill="#EBE4DE" d="M46.6,35.8c0-0.1-0.2-0.1-0.3-0.1C46.3,35.8,46.5,35.8,46.6,35.8"/>
		<path fill="#EBE4DE" d="M45.9,35.6C46,35.9,46.4,35.6,45.9,35.6"/>
		<path fill="#EBE4DE" d="M31.3,27.3c0.1,0.3,0.3-0.2,0.3,0.1c0.1,0,0.1-0.1,0-0.1c0.2-0.2,0.4-0.3,0.6-0.4
			C32,26.6,31.6,27.1,31.3,27.3 M34.5,21.9c-0.2,0.1,0.1,0.4,0.3,0.3C34.8,22.1,34.6,22.1,34.5,21.9 M27.4,35.9
			c-0.1-0.1-0.3,0-0.6-0.1 M28.6,35.8C28.2,35.6,29,36,28.6,35.8 M38.2,35.6c0.5,0.2,1.8,0.1,0.6,0C38.7,35.6,38.4,35.7,38.2,35.6
			 M24.9,35.9c-0.2-0.2-0.7-0.2-0.9-0.1c0.3-0.3-0.1-0.1-0.4-0.1 M36.4,35.5c0-0.2-0.3-0.1-0.5-0.1C35.9,35.6,36.2,35.5,36.4,35.5
			 M43,35.5C42.7,35.3,43.2,35.8,43,35.5 M35.8,35.5c-0.8-0.3-1.8-0.1-0.6,0C35.3,35.5,35.4,35.5,35.8,35.5 M38.1,35.4
			c-0.4-0.2-1.2,0.1-1.5,0.1C36.7,35.6,37.3,35.4,38.1,35.4 M27.4,35.2c0,0.1,0.3,0.1,0.3,0.2C27.8,35.3,27.5,35.1,27.4,35.2
			 M32.8,35c0.1,0.1,0.3,0.2,0.4,0.3c0.3,0.1,1.2,0.2,0.8,0C33.8,35.2,33.4,35.1,32.8,35 M39.2,35.1c-0.3-0.2-0.7,0.2-1.1,0.1
			C38.3,35.5,38.8,35.1,39.2,35.1 M28.9,34.8c-0.1,0.1-0.2,0.1-0.3,0.2C28.5,35.1,29,35,28.9,34.8 M39.7,34.9
			c-0.1-0.1-0.2-0.1-0.2,0C39.6,35,39.7,34.9,39.7,34.9 M32,34.7c0.1,0.2,0.4,0.2,0.7,0.3C32.7,34.8,32.2,34.8,32,34.7 M17.2,34.7
			C16.8,34.5,17.6,34.9,17.2,34.7 M16.8,34.4C16.5,34.2,17.3,34.8,16.8,34.4 M31,34.4c-0.2-0.1,0.5,0.4,0.9,0.3
			C31.7,34.5,31.3,34.5,31,34.4 M22.8,34.3C22.8,34.1,22.1,34.9,22.8,34.3 M15.8,33.5c-0.2-0.1,0.4,0.5,0.6,0.6
			C16.5,34.3,16,33.6,15.8,33.5 M43.8,32.5c-1.1,0.7-2.5,1.7-3.9,2.3C41.5,34.4,42.6,33.5,43.8,32.5 M27.9,32.2
			c0.9,0.8,1.8,1.6,3,2.1C29.8,33.7,28.9,32.9,27.9,32.2 M44.2,32.1c-0.1-0.2-0.3,0.1-0.3,0.3C44,32.3,44,32.1,44.2,32.1 M14.9,31.7
			c0,0.5,0.4,1.3,0.9,1.6C15.4,32.9,15.1,32.4,14.9,31.7 M44.6,31.5c-0.1-0.2-0.2,0.3-0.4,0.3C44.3,32,44.5,31.7,44.6,31.5
			 M27.1,31.3c-0.1,0.2,0.4,0.6,0.6,0.8C27.9,31.9,27.2,31.6,27.1,31.3 M44.9,31.3C44.8,31,44.7,31.7,44.9,31.3 M23.3,33.8
			c0.8-0.8,1.3-1.7,1.5-2.7c0.1-0.6,0.1-0.8-0.1-0.2c-0.2,0.7-0.8,1.8-1.3,2.7C23.5,33.5,22.8,34.4,23.3,33.8 M14.7,30.4
			C14.4,31,14.9,31,14.7,30.4 M19.4,30.2c0,0.2,0.7,0.1,0.3,0.3c0.1,0.1,0.1,0,0.2,0v-0.2C19.7,30.3,19.7,29.9,19.4,30.2 M14.7,29.7
			c-0.2,0.2-0.1,0.5,0.2,0.3C14.8,29.9,14.7,29.9,14.7,29.7 M19.9,29.6C20,29.3,19.5,30,19.9,29.6 M25.7,29.1
			c0.1,0.6,0.7,1.6,1.4,2.1C26.6,30.6,26.1,29.9,25.7,29.1 M25.5,29C25.6,28.6,25.1,28.4,25.5,29 M15.1,28.3
			c-0.2,0.3-0.3,0.6-0.3,1.1C14.9,29,14.9,28.8,15.1,28.3 M36.5,28.2C36.4,27.9,36.6,28.7,36.5,28.2 M25.3,28.1
			c-0.1-0.3-0.2,0.2,0,0.2C25.4,28.6,25.3,28.3,25.3,28.1 M15.5,27.4C15.6,27.2,15.2,28.1,15.5,27.4 M25,27.4
			c-0.2-0.2,0.1,0.3,0.1,0.4C25.3,28.1,25,27.6,25,27.4 M23.8,27.3c0.2,0.3,1,1.6,0.9,2.5C24.9,28.8,24.4,27.8,23.8,27.3 M17,26
			c-0.4-0.1-1.4,1-1.3,1.2C15.8,27.2,16.4,26.3,17,26 M15.8,27.8c0.9,0.5,1.9,1,2.8,1.6c0-1.2-1.5-1.7-2.1-2.5
			C16.3,27.1,15.9,27.4,15.8,27.8 M23.8,28c-0.1-0.4-0.4-0.5-0.5-0.9c-0.5,0.3-0.9,0.7-1.4,1.1c0.3-0.5,1-0.7,1.2-1.2
			c-0.3-0.1-0.3-0.4-0.7-0.4c-0.4,1.4-1.1,2.6-2.1,3.5c0,0.2,0.3,0.1,0.5,0.1C21.7,29.3,22.8,28.7,23.8,28 M20.9,30
			c0.1,0.1,0.3,0.1,0.3,0.2c-0.1,0.3-0.2-0.1-0.3,0c0.1,0.2,0.8,0.4,1.2,0.5c-0.5,0.1-1.1-0.5-1.8-0.5c0.1,0.3,0.2,0,0.4,0.2
			c-0.2,0.2-0.8,0.2-0.8,0.6c0.2,0,0.2,0.1,0.3,0.1c0.1-0.2-0.2-0.2-0.1-0.4c0.2,0.2,0.2,0.5,0.4,0.7c-0.5-0.1,0.7,0.8,0.9,1.1
			c-0.7-0.3-1-0.9-1.8-1.4c-0.1,0.2-0.3,0.3-0.3,0.7c-0.3-0.2,0.1-0.6,0.3-0.6c-1.4-1.1-2.7,1-3.9,1.4c0.1,0.4,0.4,0.7,0.6,0.9
			c0.5-0.3,0.9-0.7,1.3-1.1c-0.1,0.3-0.8,0.7-1.2,1.1c0.7,1.6,1.4-0.1,2.1-0.9c-0.1,0.4-0.8,1.2-1.2,1.7c0.3,0.2,0.6,0.4,1.1,0.4
			c0.1-0.7,0.3-1.2,0.3-1.8c0.2,0.6-0.3,1.2-0.3,1.9c0.3,0.1,0.7,0.1,1.1,0.1v-0.5c0.2,0,0.1,0.3,0.1,0.5c0.5,0.1,0.4,0,1.1,0
			c0-1-0.3-2-0.3-3.2c0.3,0.9,0.3,2.1,0.5,3c0.4-0.1,0.7-0.2,1.1-0.3c-0.2-0.7-0.6-1.1-0.8-1.8c0.3,0.5,0.6,1.1,0.9,1.7
			c1.4-0.4,0.1-1.2-0.4-1.8c0.8,0.7,1.5,1.9,2.1,0.3c-0.4-0.1-0.7-0.3-1.1-0.4c0.3-0.2,0.7,0.4,1.2,0.3c0.1-0.3,0.3-0.6,0.3-0.9
			c-0.4-0.1-0.7-0.3-1.2-0.4c0.3-0.2,0.8,0.3,1.2,0.3c0.1-0.3,0.2-0.7,0.2-1.2c-0.9,0-1.7-0.2-2.7-0.2c0.8-0.2,1.8,0.1,2.7,0.1
			c0-0.4,0.1-0.8-0.1-1.1c-0.2,0.1-0.4,0.2-0.7,0.2c0.2-0.2,0.4-0.2,0.7-0.3c-0.1-0.4-0.2-0.7-0.3-1.1C22.8,28.6,22,29.4,20.9,30
			 M15.8,27.8c-0.2,0.2-0.8,1-0.3,1.2c-0.1,0.3-0.2-0.1-0.3,0c-0.1,0.3-0.2,0.7-0.2,1.1c0.3,0.1,0.8,0.2,1.2,0.2
			c-0.3,0.2-0.7-0.1-1.2,0c-0.1,0.5,0.1,0.7,0.1,1.1c0.3-0.1,0.6-0.2,0.9-0.3c-0.2,0.2-0.5,0.2-0.8,0.3c0,0.4,0.2,0.7,0.3,0.9
			c1.1-0.4,1.8-1.2,2.8-1.7c0-0.1-0.2-0.1-0.3-0.1c0.4-0.2,0.7-0.1,1.1,0c-0.2-0.2-0.6-0.4-0.9-0.3c0.4-0.2-0.5-0.4-0.8-0.5
			c0.4-0.1,1.2,0.6,1.7,0.4C18.7,28.8,16.8,28.7,15.8,27.8 M20.3,29c-0.1,0.1-0.2,0.1-0.2,0.3C20.2,29.3,20.3,29.2,20.3,29
			 M17.7,26.4c-0.2-0.6-0.7,0.2-1.1,0.3c0.4,0.7,1.2,1.4,1.8,1.6c0.2,0.7,0.7,1.2,0.6,1.7c0.3-0.2,0.2-0.2,0.5-0.3
			c-0.7-0.3-0.5-1.4-0.7-2.5c0.4,0.7-0.1,2.2,0.8,2.3c0.2-0.3,0.4-0.7,0.7-0.6c-0.4-0.2,0.2-0.3,0.1-0.8c0.1,0,0.1,0.1,0.1,0.2
			c0.6-0.6,0.8-1.4,1.1-2.3c-0.2,0.1-0.3-0.2-0.5-0.2c-0.1,0.6-0.3,1.1-0.3,1.8c-0.2-0.5,0.2-1.2,0.3-1.7c-0.2-0.3-0.7-0.2-1.1-0.3
			c-0.1,0.8,0.1,2.2,0,3.3c-0.2-1-0.1-2.3-0.2-3.3h-0.9c-0.1,0.1-0.1,0.2-0.1,0.3c-0.2-0.6-0.7,0.1-1.2,0.1
			C17.7,26.2,17.7,26.3,17.7,26.4 M17.7,25.7c0.2-0.2-0.4,0.1-0.5,0.2C17.2,26,17.5,25.7,17.7,25.7 M18.4,25.4
			C19,25.2,17.2,25.9,18.4,25.4 M22.1,25.3c-0.1,0.3,0.2,0.2,0.3,0.2C22.4,25.4,22.3,25.3,22.1,25.3 M35.8,25.4
			c-0.1-0.1-0.2-0.1-0.2,0C35.7,25.6,35.8,25.4,35.8,25.4 M19.3,25.1C18.5,25.2,18.9,25.6,19.3,25.1 M36.1,25.3
			C35.8,24.9,35.9,25.6,36.1,25.3 M37.1,25.3c0.1-0.2-0.4,0.2-0.4-0.1c-0.3,0.2,0.3,0.3,0.3,0.5C37.3,25.6,36.8,25.3,37.1,25.3
			 M36.4,25.1C36.2,24.8,36.2,25.5,36.4,25.1 M35.2,25c-0.2-0.1-0.2,0.1-0.2,0.3c0.1,0,0.1-0.1,0.2-0.1V25z M33.1,24.8h-0.3v0.3h0.3
			V24.8z M35.2,24.8C34.8,24.6,35.3,25.1,35.2,24.8 M34.7,25c0.2,0.1,0.1-0.2,0.3-0.3C34.9,24.5,34.6,24.7,34.7,25 M34.7,24.7
			c-0.3-0.3-0.4,0.3-0.7,0.3C34.2,25.1,34.7,24.9,34.7,24.7 M37.2,24.1c-0.3,0.1,0.4,0.8,0.5,0.3c-0.1,0-0.1,0.1-0.2,0.1
			c-0.2-0.1,0.1-0.1-0.1-0.3C37.3,24.2,37.2,24.2,37.2,24.1 M34.7,23.6C34.4,23.3,34.9,23.8,34.7,23.6 M36.5,24.5
			c0.3-0.5,1.1-0.7,1.7-0.9c-0.8-0.2-1.4,0.4-2.1,0.5C36.2,24.3,36.2,24.5,36.5,24.5 M37.2,23.3c-0.2-0.1-0.2,0.1-0.3,0.1
			C36.9,23.6,37.4,23.6,37.2,23.3 M35.4,23.2c0.1-0.2-0.4-0.1-0.3,0.1L35.4,23.2C35.3,23.2,35.3,23.2,35.4,23.2 M37.4,23.2
			c0-0.2-0.3-0.1-0.4-0.1C37,23.3,37.3,23.2,37.4,23.2 M39.6,23.1h-0.3c0.1,0.1,0.1,0.3,0.3,0.3V23.1z M38.8,23.1
			c-0.1-0.1-0.2-0.1-0.3-0.1c0.1,0.1,0.1,0.2,0,0.2c0,0.1,0.1,0.1,0.1,0.1h0.2C38.8,23.2,38.8,23.1,38.8,23.1 M36.6,22.8
			c-0.2-0.1-0.2,0.4,0,0.3V22.8z M37.5,23.1c0,0.3,0.2,0.1,0.4,0.2C38,23.2,38,23,38,22.9C37.8,23,37.8,23.2,37.5,23.1 M37,22.6
			c-0.4-0.1-0.1,0.4-0.3,0.4c0.1,0.1,0.1-0.1,0.3,0C36.7,22.8,37.1,23,37,22.6 M35.3,21.5c-0.1,0.3-0.1,0.7,0,1.1
			C35.5,22.2,35.4,21.8,35.3,21.5 M24.6,21.3c-0.3,1.8-0.4,4,0.2,5.8c0.1,0.5,0.1-0.4-0.1-0.4c-0.7-1.8,0.1-4.5,0.3-6.3
			C25.1,19.9,24.9,20.9,24.6,21.3 M25.3,19.8C25.4,19.5,25,20.3,25.3,19.8 M46.3,19.4C46.5,19.1,46,18.9,46.3,19.4 M26,18.2
			C26.1,17.9,25.7,18.9,26,18.2 M26.5,17.5C26.7,17.1,26.2,18.1,26.5,17.5 M27.7,16c-0.1,0.2-0.3,0.3-0.4,0.5
			C27.1,16.7,27.7,16.3,27.7,16 M34.7,13.1c-0.3,0.1,0.1,0.6,0,0.9c-0.2-0.2-0.2-0.7-0.3-0.9c-0.3-0.1-0.4,0.2-0.8,0.1
			c0.4,1.7,0.9,3.2,1.3,4.8C35.1,16.5,34.7,14.6,34.7,13.1 M36.3,22C35.9,22.3,36.6,22.3,36.3,22 M36.4,22.1c0.4,0,0.3-0.5,0.3-0.9
			C36.6,21.4,36.3,21.7,36.4,22.1 M36.4,22.3c-0.2,0.1-0.1,0.2-0.1,0.4C36.5,22.8,36.5,22.5,36.4,22.3 M37.1,22.4
			c-0.1,0.4,0.1,0.1,0.3,0.3c-0.1,0.1-0.2,0.2-0.3,0.3c0.2,0.3,0.5-0.1,0.6-0.3C37.5,22.7,37.3,22.6,37.1,22.4 M39.2,23.6
			C38.9,23.3,38.9,23.8,39.2,23.6 M38.2,24.6c-0.1,0.3-0.3-0.1-0.8,0.1c0.2,0.4,0.8,0,1.1,0.2C38.4,24.6,38.2,24.7,38.2,24.6
			 M37.5,25.1c-0.1-0.2-0.3-0.3-0.3-0.5c-0.3,0.1,0.2,0.4-0.2,0.3C37.1,25.1,37.3,25.1,37.5,25.1 M37.2,25.1
			c0.1,0.2,0.3,0.2,0.6,0.3C37.8,25.2,37.3,25.3,37.2,25.1 M37.2,25.4c0.3,0.9,1.3,1,1.8,1.5C38.3,26.4,38.2,25.5,37.2,25.4
			 M36.7,25.7c-0.3,0.7,0.8,1.5,1.2,2.2c-0.1-0.6-0.3-1.8-0.9-2.2c-0.1,0.1-0.1,0.2-0.1,0.3C36.6,26,36.7,25.8,36.7,25.7 M36.2,25.3
			c-0.2,0.1-0.2,0.2-0.1,0.3C36.3,25.6,36.3,25.3,36.2,25.3 M36.4,26c0.2-0.1,0.1-0.4,0.1-0.6C36.2,25.6,36.2,25.8,36.4,26
			 M36.1,25.7c-0.2-0.1-0.2,0.1-0.2,0.3c-0.2-0.1,0.1-0.3,0-0.4c-0.1,0.1-0.2,0.1-0.3,0.1c-0.1,0.5,0.3,0.4,0.1,0.7
			C35.9,26.2,36.1,26,36.1,25.7 M35.2,26c0.1-0.1,0.1-0.2,0.3-0.2C35.5,25.6,35.2,25.8,35.2,26 M35.2,25.7
			C35.7,25.6,35.2,25.1,35.2,25.7 M33.6,27.7c0.4-0.8,1.5-1.3,1.6-2.2c-0.1,0-0.1,0.2-0.1,0.3C34.2,25.4,33.8,26.9,33.6,27.7
			 M34.7,25.3c-0.1-0.1,0.1-0.1,0-0.3c-0.2-0.1-0.1,0.3-0.3,0.3c0.2,0.2,0.7-0.1,0.5-0.4C34.8,25,34.8,25.2,34.7,25.3 M34.5,23.7
			c0.1-0.3-0.2-0.3-0.3-0.2C34.2,23.7,34.3,23.8,34.5,23.7 M32,22.3c-0.2,0.3,1.3,0.9,1.7,1.2C33.5,23,32.7,22.5,32,22.3 M34.7,23.4
			c0.1,0,0.1-0.1,0.1-0.2c0.1,0.1,0.2,0.1,0.3,0.1c0.1-0.2-0.2-0.4-0.3-0.2c-0.1-0.1-0.1-0.3-0.3-0.2C34.5,23.1,34.7,23.2,34.7,23.4
			 M34.5,23.4c0.2-0.1-0.1-0.6-0.3-0.5C34.2,23.1,34.3,23.2,34.5,23.4 M32.8,22.5c0.5,0.3,0.9,1,1.5,0.9
			C34.1,22.7,33.5,22.6,32.8,22.5 M33.8,21.7c-0.2,0.2,0.3,1.1,0.8,1.1C34.6,22.2,34.1,22,33.8,21.7 M34.6,22.3
			c-0.1,0.1,0.1,0.5,0.2,0.6C35.1,22.9,34.8,22.3,34.6,22.3 M34.9,22.6c0.1,0.2,0.2,0.4,0.4,0.4C35.4,22.7,35.2,22.7,34.9,22.6
			 M34.9,22.3c0,0.2,0.3,0.1,0.3,0.3C35.3,22.6,35.1,22.3,34.9,22.3 M35.1,21.6c0.3-0.7-0.6-1.1-0.6-1.7
			C34.2,20.6,34.8,21.2,35.1,21.6 M34.7,21.2c-0.1,0.2,0.1,0.9,0.3,1.2C35.4,21.8,34.8,21.6,34.7,21.2 M34,20.1
			c-0.1,0.5,0.3,1.4,0.6,1.8C34.8,21.3,34.3,20.6,34,20.1 M33,14.7c-0.2-0.4-0.3-0.7-0.3-1.2c-0.2,0.1-0.4,0.2-0.7,0.3
			c0.2,0.8,0.5,1.4,0.6,2.2c-0.3-0.7-0.5-1.3-0.7-2.1c-0.3,0-0.4,0.3-0.8,0.3c0.4,1.2,1.2,1.9,1.7,3c0.2-0.1-0.1-0.2,0-0.4
			c0.3,0.5,0.3,1.3,0.8,1.7c-0.5-0.3-0.9-1.2-1.3-1.9c-0.4-0.7-0.8-1.5-1.2-2.2c-0.4,0-0.5,0.3-0.8,0.3c0.9,1.7,2.2,3,3.2,4.7
			c0.2-0.2-0.2-0.6-0.2-0.9c0.3,0.8,0.6,1.7,1.1,2.2c0.1-0.7-0.4-1.5-0.8-1.9c0.1-0.2,0.3,0.3,0.3,0.4c-0.1-1.3-0.7-2.8-0.9-4.2
			c0.7,2.2,1,4.8,2.3,6.4c0.2,0.2,0.1-0.4-0.1-0.4c0.2-2.9-1.1-4.9-1.6-7.5c-0.3,0-0.6,0.1-0.9,0.2C32.8,13.9,33,14.3,33,14.7
			 M34.3,21.6c-0.8-2.9-2.8-4.5-4.2-6.9c-0.2,0.1-0.4,0.3-0.6,0.4C31,17.4,32,20.1,34.3,21.6 M33.7,22.6c-0.3-0.2-0.7-0.3-1.2-0.4
			c0.2-0.2,0.7,0.2,0.9,0.3c0-0.3-0.5-0.8-0.8-1.2c0.6,0,0.7,1.2,1.4,1.3c-0.8-1.7-2.4-2-3.7-3.2c1.4,0.9,2.5,1.7,3.9,2.7
			c0-0.8-2-1.3-2.2-2.1c0,0,0.5,0.2,0.3,0.3c-0.3-0.9-1.6-2.5-2.3-3.8c-0.4-0.7-0.7-1.7-1.4-0.8c0.4,0.9,1.1,1.6,1.7,2.3
			c-0.8-0.2-1.4-2.9-2.3-1.6c0.1,0.4,0.6,0.5,0.8,0.8c-0.2,0.1-0.7-0.4-0.9-0.6c-0.2,0.2-0.4,0.4-0.5,0.7c1,0.7,2.1,1.2,2.9,2.1
			c-1-0.7-2-1.3-3-2.1c-0.3,0.1-0.2,0.5-0.5,0.6c1.8,1.4,3.5,3,5.6,4.1C31.6,22,33.1,22.6,33.7,22.6 M32.6,23.8
			c-0.2,0.2-0.5-0.2-0.9-0.1c0.3,0.2,0.9,0.3,1.2,0.2c-1.2,0.1-2.9-0.1-4.5,0.2c0.6-0.3,2.4-0.1,2.5-0.4c0.3-0.1,0.4,0.2,0.8,0.1
			c-1.5-0.8-3.6-1.2-5.5-1.8c2.3,0.3,4.3,1.7,7.4,1.6c-0.9-0.7-1.7-1.4-3.2-1.6c0.7-0.2,1.2,0.3,2.1,0.3c-1.8-1.3-3.8-2.8-5.6-4.2
			c-0.2,0.2-0.4,0.5-0.5,0.8c0.7,0.3,1.2,0.7,1.8,1.1c-0.5-0.1-1.2-0.8-1.8-0.9c-0.1,0.3-0.2,0.5-0.3,0.7c0.2,0.3,0.7,0.3,1.2,0.4
			c-0.3,0.2-0.8-0.2-1.2-0.3c-0.2,0.2-0.2,0.5-0.3,0.7c0.3,0.3,0.9,0.3,1.5,0.4c-0.4,0.2-1.1-0.2-1.4-0.3c-0.3,0.1-0.2,0.6-0.3,0.7
			c0.1,0.2,0.2,0.3,0.5,0.3c-0.1,0.2-0.3-0.1-0.5,0c-0.1,0.2-0.1,0.6-0.2,0.8c0.1,0.1,0.2,0.1,0.4,0.1c0,0.2-0.3,0.1-0.4,0.1
			c0.1,0.3-0.2,0.5-0.1,0.9h2.5c-0.7,0.2-1.7,0.1-2.5,0.1v0.9h0.3c-0.1,0.1-0.2,0.1-0.3,0.1c-0.1,0.4,0.1,0.5,0.1,0.9
			c0.5-0.2,1.3-0.1,1.9-0.1c-0.5,0.2-1.4-0.1-1.9,0.2c0.1,0.3,0.1,0.7,0.2,0.9c0.7,0.1,1.1-0.2,1.7-0.2c-0.4,0.2-1.3,0.3-1.6,0.3
			c-0.2,0.2,0.1,0.7,0.2,0.9c0.4-0.1,0.8-0.3,1.3-0.4c-0.4,0.2-0.8,0.4-1.3,0.5c0.1,0.3,0.2,0.5,0.3,0.8c1.7-0.7,3-1.5,4.5-2.3
			c-1.1,0.8-3,1.6-4.4,2.3c-0.1,0.4,0.2,0.5,0.3,0.8c1.7-0.7,3.3-1.4,5.1-2.1c-1.6,0.8-3.4,1.3-5,2.1c0.1,0.3,0.3,0.5,0.4,0.8
			c0.3-0.2,0.6-0.3,0.9-0.4c-0.2,0.2-0.4,0.4-0.8,0.4c0.1,0.3,0.4,0.4,0.4,0.8c0.3-0.3,0.7-0.5,0.9-0.9c0.1,0.3-0.6,0.7-0.9,0.9
			c0.2,0.2,0.4,0.4,0.5,0.7c1.4-1.2,2.5-2.8,3.9-4c-0.5-0.1-1.4,0.7-1.8,1.2c-0.2-0.1,0.1-0.2,0.2-0.3c-0.2-0.1-0.6,0.3-0.9,0.3
			c0.6-0.6,2-0.9,2.1-1.7c0.5-0.2,1.1-0.6,1.5-0.9c0.3-0.2,0.8-0.6,0.6-0.8v0.2c-0.8-0.2-1.9,0.1-2.5,0.3c-0.2-0.1,0.1-0.1-0.1-0.3
			c-0.5,0.2-1.1,0.4-1.7,0.3c1.3-0.3,2.1-0.4,3.4-0.5c-0.4-0.3-1.1-0.1-1.7,0.1c0.5-0.3-0.7-0.1-1.1-0.2c0.7-0.2,1.8,0,2.3-0.2
			c-0.1-0.3-0.2,0.1-0.3,0c0.1-0.1,0.4-0.3,0.4-0.1c-0.1-0.3,0.7-0.3,0.9-0.6c0.4,0.3,1.1,0,1.5-0.2c-0.4-0.2-0.7,0.3-1.2,0.3
			c0.4-0.2-0.2-0.3-0.5-0.3c0.3-0.4,1.2,0.3,1.5-0.3c-0.1-0.1-0.1-0.3-0.3-0.3c0.1,0.1,0.1,0.2,0.3,0.2c-0.1,0.2-0.4-0.2-0.5-0.2
			C32.5,23.8,31,23.2,32.6,23.8 M32.2,26.6c0.5-0.1,1.2-0.4,1.9-0.7c-0.3,0.2-0.8,0.7-1.2,0.5c0.3,0.2-0.1,0.2-0.2,0.3
			c-0.2,0,0.1-0.2,0.2-0.2c-0.2-0.3-0.3,0.2-0.5,0.2c0.1,0.1,0.1,0,0.2,0c-1.7,1.4-3,3.2-4.5,4.8c0.1,0.3,0.4,0.4,0.5,0.7
			c2.3-2.1,4.9-3.8,6-7C33.4,25,33.1,26.4,32.2,26.6 M34.8,29.6c-0.1-0.3-0.1-0.6,0-0.9c-0.2,0.3-0.3,0.7-0.5,0.9
			c-0.1-0.3,0.5-0.7,0.3-1.3c0.2,0.3,0.1-1,0.3-1.5c0.3,0.3-0.1,0.8,0,1.2c0.4-0.5,0.8-1.3,0.7-2.1c-0.3,0.1-0.6,0.3-0.5,0.8
			c-0.3-0.6-1,0.8-1.4,1.2c-0.3-0.1-0.1-0.2-0.1-0.4c-0.2-0.1-0.1,0.2-0.3,0.3c0,0.3,0.1-0.1,0.3,0.2c-0.2,0.4-0.5,0.7-0.5,1.2
			c-0.3-0.1,0.1-0.2,0-0.3c-0.3,0.1-0.3,0.4-0.6,0.5c0.2-0.5,0.7-0.7,0.9-1.2c-0.2-0.2-0.4,0.2-0.4,0.4c-1.4,1-3,2.5-4.3,3.9
			c0.3,0,0.3,0.4,0.7,0.4c0.3-0.5,0.8-0.8,1.1-1.3c-0.1,0.3-0.7,0.9-1.1,1.3c0.1,0.3,0.4,0.3,0.6,0.5c0.5-0.7,0.9-1.5,1.3-2.3
			c-0.1,0.7-0.9,1.5-1.2,2.3c0.3,0.1,0.4,0.4,0.8,0.3c0.1-0.3,0.3-0.6,0.3-0.9c0.2,0.3-0.3,0.7-0.3,1.2c0.2,0.1,0.5,0.1,0.6,0.3
			c0.3-0.3,0.5-0.9,0.8-1.4c0.1,0.4-0.5,0.9-0.5,1.5c0.2,0.1,0.3,0.1,0.5,0.2c0.3,0,0.3-0.2,0.3-0.4c0.3,0.1-0.1,0.3,0,0.5
			c0.3-0.1,0.4,0.2,0.8,0.2c-0.1-0.3,0.2-0.3,0.1-0.7c0.2,0,0.2,0.6,0,0.6c0.1,0.2,0.4,0.3,0.8,0.3c0-0.2-0.1-0.6,0.1-0.7
			c0.1,0.1,0.1,0.3,0,0.7c0.2,0.2,0.6,0.1,0.9,0.1c-0.1-0.3,0.1-0.5,0.1-0.8c0.2,0.1,0.1,0.6,0.1,0.8h0.8v-1.6
			c0,0.6,0.3,1.5,0.1,1.6c0.3,0.1,0.7-0.1,0.7,0c0.2-0.2-0.1-0.5,0-0.9c0.2,0.2,0.1,0.6,0.2,0.8c0.4,0.1,0.5-0.1,0.9-0.1
			c0-0.5-0.2-0.8-0.3-1.2c0.2,0.3,0.2,0.8,0.4,1.2c0.3,0.1,0.5-0.1,0.7-0.2c0.1-0.3-0.1-0.4-0.1-0.8c0.1,0.2,0.2,0.5,0.3,0.8
			c0.2-0.1,0.5-0.2,0.8-0.3c-0.1-0.1-0.1-0.2-0.1-0.4C40,33.8,40,34,40,34.1c0.3-0.1,0.5-0.2,0.8-0.3c-0.2-0.6-0.7-1.1-0.9-1.7
			c0.3,0.5,0.7,1.1,0.9,1.6c0.2-0.2,0.5-0.3,0.8-0.4c-1.1-1.5-2.2-3-3.3-4.5c0.7,0.7,1.7,2.2,2.5,3.3c0.5,0.6,1.1,1.5,1.5,0.4
			c-0.4-0.5-0.7-1.1-1.1-1.7c0.4,0.5,0.8,1.1,1.2,1.8c0.2-0.2,0.6-0.2,0.6-0.6c-0.5-0.7-1.1-1.3-1.6-2.1c0.6,0.7,1.2,1.3,1.7,2.1
			c0.2-0.2,0.5-0.3,0.6-0.7c-0.8-0.7-1.7-1.3-2.3-2.1c0.8,0.7,1.7,1.3,2.5,2.1c0.3-0.1,0.3-0.5,0.6-0.6c-0.6-0.4-1.1-0.8-1.8-1.2
			c0.5,0.1,1.2,0.7,1.8,1.1c0.2-0.1,0.3-0.3,0.4-0.5c-0.7-0.9-1.8-1.5-2.7-2.2c0.9,0.3,1.9,1.4,2.9,1.9c0.1-0.3,0.3-0.4,0.3-0.8
			c-1.5-0.8-2.7-1.9-4.5-2.5c0.1-0.2,0.5,0.2,0.3-0.2c0.4,0.2,1,0.6,1.2,0.5c0.1,0.1,0,0.1-0.1,0.1c1.1,0.7,2.1,1.3,3.2,1.9
			c0.1-0.3,0.2-0.5,0.3-0.8c-0.9-0.3-1.9-0.7-3-0.9c1-0.1,1.9,0.7,3,0.8c0.1-0.2,0.1-0.5,0.3-0.6c-1.4-0.7-3.2-0.9-4.8-1.2
			c1.6,0.1,3.2,0.7,4.8,0.9c0.1-0.2,0.2-0.4,0.2-0.8c-2.6-0.8-5.3-1.5-7.8-2.2c0.8-0.1,1.6,0.6,2.7,0.4c0.1,0.1-0.2,0.1-0.2,0.1
			c0.4,0.4,1.8,0.6,2.7,0.8c1.1,0.3,2,0.6,2.7,0.7c0-0.3,0.2-0.4,0.1-0.8c-1.1-0.2-2.1-0.5-3.2-0.6c1.1-0.2,2.2,0.4,3.3,0.4v-0.8
			c-1.3-0.1-2.4,0.1-3.7,0.1c1.2-0.2,2.4-0.2,3.7-0.3v-0.8c-2.3,0.2-4.8,0.7-6.9,0.8c1.9-0.4,4.7-0.6,6.9-0.9
			c0.1-0.4-0.2-0.5-0.1-0.9c-2.2,0.5-5.5-0.1-6.9,1.2c-0.3-0.1-0.6,0.1-0.8,0.2c-0.2-0.1-0.3-0.3-0.5-0.3c-0.2,0.1-0.2,0.3-0.5,0.3
			c0.1,0.2,0.6,0.1,0.7,0.3c-0.2,0.3-0.9-0.5-1.2,0.2c0.3,0.2,0.3-0.1,0.6-0.1c-0.1,0.2-0.4,0.2-0.2,0.3c0.4,0,0.7-0.2,1.2-0.1
			c-0.2,0.2-0.7,0-0.9,0.2c0.1,0.3,0.6,0.2,0.6,0.5c-0.5-0.2-0.4-0.1-1.4-0.2c0.2,0.5,0.9,0.4,1.4,0.5c-0.3,0.3-0.7-0.1-1.1-0.1
			c0.1,0.3,0.4,0.3,0.7,0.3c-0.1,0.2-0.3-0.1-0.4,0c1.1,1.8,3,2.7,4.7,3.8c-1.1-0.6-2.7-1.6-3.7-2.3c0.4,1,1.3,2.2,2.1,3.3
			c-1.1-1.5-1.9-3.1-3.5-4.1c0.5,0.3,0.9,0.7,1.3,1.1c0-0.6-1.1-0.9-1.6-1.3c0.4,0.7,0.4,1.6,0.7,2.2c0.3,0.8,0.5,0.7,0,0
			c-0.3-0.5-1.2-1.5-1.5-1.6c0.1,1.1-0.1,2.2,0.2,3c-0.3-0.4-0.3-1.2-0.5-1.8c0.3,0.3,0.4-1.8,0-2.1c-0.8,1.4,0.6,3.2-0.1,5
			c0.1-1.4,0-2.8-0.3-4.2C35.2,27.8,34.8,28.3,34.8,29.6 M38.5,12.9c3,0.8,5.4,2.3,6.9,4.8C44.2,15.3,41.7,13.5,38.5,12.9
			 M38.1,12.8C36.8,12.5,38.8,12.9,38.1,12.8 M37.2,12.7c0-0.2-0.3-0.1-0.5-0.1C36.8,12.8,37.1,12.6,37.2,12.7 M28.9,12.5
			c-0.7-0.5-1.1,0.7-0.6,1.2c0.3,0.1,0.3-0.1,0.5-0.2C28.5,13.3,28.4,12.6,28.9,12.5 M22.6,25.8c3.2,1.3,3.1,7.8-0.2,8.9
			c0.3,0.2,1.1,0.1,1.1-0.2c0.4,0.4,1.1,0.2,2.1,0.3c-0.2,0.2-0.7,0.1-0.9,0.1c0.2,0.2,1.6,0.1,1.5-0.3c0.3-0.1,0.3,0.3,0.5,0.3
			c0,0.2-0.3,0.1-0.3,0.2c0.1,0.1,0.7-0.1,0.9,0c0.1-0.2-0.1-0.2-0.2-0.2c0.8-0.2,1.9-0.3,2.5,0.1c-0.1,0.2-0.4,0.1-0.4,0.2
			c0.1,0.2,0.8-0.2,0.6,0.1c0.3,0.1,0.2-0.2,0.1-0.3c0.9,0.1,1.7,0.4,2.7,0.3c-4.2-1.6-7.7-4.7-8.3-9.8c-0.7-5.9,2.7-10.3,7-12.2
			c0-0.2,0.2-0.1,0.2-0.3c0.7-0.2,1.2-0.4,1.8-0.6c0.2,0.1,0.2-0.1,0.1-0.1c-1.3,0.3-2.4,0.8-3.3,1.6c-4,1.8-5.4,6.2-6.8,10.6
			C22.8,24.7,22.7,25.3,22.6,25.8 M34.7,12c-0.5,0.2-1,0.3-1.6,0.4C33.5,12.5,34.5,12.5,34.7,12 M29.2,12
			C29.1,11.8,29.1,12.4,29.2,12 M35.7,11.9v0.3c0.4-0.1,0.7,0.1,1.1,0.1C36.3,12.1,36.1,11.9,35.7,11.9 M28.7,11.8
			C28.5,11.5,28.6,12.1,28.7,11.8 M35.4,11.8c0-0.2-0.3-0.1-0.5-0.1C34.9,11.9,35.2,11.8,35.4,11.8 M30.3,11.6
			C30.7,11.5,30.3,11.6,30.3,11.6 M35.7,11.2c-0.3-0.1-0.1,0.4-0.1,0.5C35.8,11.7,35.7,11.3,35.7,11.2 M32.8,11
			C33,11.3,33.1,10.7,32.8,11 M35.1,10.9c-0.2-0.2-0.1,0.5-0.1,0.7C35.1,11.8,35.1,11,35.1,10.9 M35.7,10.9c0-0.1-0.2-0.1-0.3-0.1
			C35.4,10.9,35.6,10.8,35.7,10.9 M34.1,10.5c-0.8,1.3-3.2,1-4.5,1.8c1.6-0.3,3.3-0.3,4.7-1.2C34.1,10.9,34.1,10.7,34.1,10.5
			 M34.5,10.5c-0.1,0.1-0.2,0.1-0.2,0.3C34.3,10.7,34.5,10.7,34.5,10.5 M35.1,10.2C35,9.8,35.2,10.8,35.1,10.2 M34.8,9.9
			C35.1,9.6,34.6,9.3,34.8,9.9 M35.6,10.2c-0.1-0.3-0.1-0.8-0.3-1.2C35.3,8.9,35.3,10.1,35.6,10.2 M38.8,22.8c0.2,0,0.2-0.2,0.5-0.1
			c-0.2,0.2-0.3,0.1-0.4,0.2c0.3-0.1,0.6,0.3,0.6,0c0.3,0.1,0.3,0.5,0.7,0.3c-0.1-0.1-0.2-0.1-0.3-0.1c1.9-0.3,4.5-0.5,6.8-0.7
			c0.1-0.1,0-0.6-0.1-0.8c-1.6,0.2-3.3,0.6-4.7,0.7c1.3-0.4,3-0.6,4.7-0.9c-0.1-0.3-0.2-0.6-0.3-0.9c-0.8,0.3-1.6,0.7-2.3,1.1
			c0.7-0.5,1.5-0.8,2.3-1.2c0.1-0.4-0.2-0.4-0.2-0.8c-1.8,0.8-3.5,1.9-5.3,2.7c0.3,0.2,0.7-0.2,1.2-0.1c-0.7,0.2-1.6,0.2-2.1,0.6
			c-0.1-0.1,0.3-0.2,0.1-0.3c2.2-0.9,4-2.1,6-3c-0.1-0.3-0.2-0.5-0.3-0.8C43.1,20.1,40.3,20.6,38.8,22.8 M38.2,22.8
			c0.9,0,1.1-0.8,1.6-1.2C39.1,21.8,38.4,22.1,38.2,22.8 M38.4,22.3c-0.3-0.2-0.7,0.3-0.8,0.5C37.9,23.1,38.1,22.4,38.4,22.3
			 M36.7,22.4c0.3,0.2,0.8-0.2,0.8-0.7c0.2,0.1-0.1,0.3,0,0.4c0.2-0.2,0.6-0.2,0.6-0.5c0.4,0.5-0.8,0.2-0.8,0.9
			c0.3-0.1,0.5-0.1,0.5-0.4c0.4,0.3,1-0.5,1.4-0.8c-0.3-0.2-0.6,0.3-0.9,0.3c-0.1,0-0.1-0.1-0.2-0.1c0.1-0.5,0.3-0.8,0.5-1.2
			C38,20.9,37.6,21.9,36.7,22.4 M36.6,22.5c0.1-0.4,0.7-0.3,0.6-1.1C36.9,21.8,36.3,22.1,36.6,22.5 M37.8,16.1
			c0.3,0.7-0.2,1.3-0.1,2.1c-0.1-0.1-0.1-0.2-0.1-0.3c-0.3,0.7-0.8,1.4-0.7,2.5c-0.2,0-0.1-0.3-0.1-0.5c-0.2,0.3-0.3,0.7-0.4,1.1
			c0.7-1.8,0.7-5.1,0.9-7.8c-0.2-0.2-0.5-0.1-0.8-0.1c-0.1,0.9-0.2,1.8-0.3,2.8c-0.2-0.9,0.1-1.9,0.1-2.8h-0.5
			c0.1,1.1,0.2,2.1,0.2,3.2c0.2-1.1,0.2,0.8,0.2,1.2c0.1,1.6,0.2,3.6,0.1,4.4c0.4-0.7,0.7-1.4,0.9-2.1c0.1,0.5-0.6,0.9-0.3,1.8
			c0.8-0.7,0.3-2.1,0.7-3.2c0.1,0.1,0.1,0.2,0.1,0.3c0.2-0.3,0.3-0.6,0.4-0.9c-0.2,0.8-0.8,1.9-0.7,3.2c1-1.2,2.3-2.2,3-3.8
			c0.1-0.2-0.1,0.8,0.1,0.3c-0.2,0.6-1,1.2-1.2,2.1c-0.2-0.3,0.3-0.7,0.3-1.1c-0.9,1.2-1.8,1.8-2.5,3.2c0.4,0.1,0.5-0.5,0.7-0.7
			c1.2-1.3,2.9-2.7,4.1-4.1c-1.2,1.7-3,2.6-3.7,4.8c2.1-0.9,3.2-2.9,4.8-4.4c-1.2,1.5-2.7,3.2-4.1,4.5c0.8,0,1.6-0.9,2.2-1.4
			c-0.1-0.2-0.2,0-0.3,0c0.5-0.2,1.4-1.2,2.1-1.9c0.6-0.6-0.7,0.9-0.9,1.1c0.1,0.2,0.3-0.1,0.4-0.1c-0.7,0.4-1.3,1-1.9,1.6
			c1.6-0.5,3.3-1.6,5-2.3c-0.1-0.3-0.3-0.4-0.3-0.7c-0.9,0.3-1.7,0.9-2.7,1.4c0.8-0.6,1.7-1.1,2.5-1.5c-0.2-0.2-0.4-0.5-0.5-0.8
			c-0.4,0.3-0.8,0.7-1.2,1.1c-0.2-0.3,1.3-0.9,0.9-1.4c-0.4-0.4-0.5,0.1-1.1,0.4c0.1-0.4,0.6-0.4,0.6-0.9c-0.2-0.1-0.4-0.3-0.5-0.5
			c-0.2,0.2-0.6,0.4-0.9,0.7c0.1-0.1-0.4,0.4,0,0c0.2-0.2,0.6-0.6,0.7-0.9c-0.3,0-0.3-0.3-0.5-0.3c-0.7,0.4-1.1,1.2-1.6,1.7
			c0.2-0.5,0.9-1.2,1.4-1.8c-0.1-0.3-0.5-0.2-0.6-0.5c-0.3,0.5-0.7,1.1-0.9,1.7c-0.1-0.5,0.6-1.1,0.7-1.8c-0.3-0.1-0.4-0.3-0.7-0.3
			c-0.2,0.4-0.4,0.8-0.5,1.2c-0.1-0.3,0.3-0.9,0.4-1.2c-0.1-0.3-0.7-0.1-0.7-0.4c-0.4,0.5-0.6,1.2-0.9,1.8c-0.1-0.5,0.5-1.2,0.7-1.8
			c-0.2-0.1-0.6-0.2-0.8-0.3c0,0.4-0.3,0.7-0.3,1.1c-0.1-0.2,0.2-0.7,0.3-0.9c-0.1-0.2-0.5-0.2-0.9-0.3c0.1,0.5-0.1,0.8-0.1,1.2
			c-0.3-0.3,0.1-0.9,0-1.3c-0.3,0.1-0.3-0.2-0.7-0.1c-0.2,1.8-0.3,3.8-0.4,5.6C37.4,18,37.8,17.3,37.8,16.1 M43,35.6
			c-0.2-0.1-1.1-0.3-1.2,0.1c-0.1-0.2-0.4-0.1-0.4,0c-0.2-0.1,0.1-0.2-0.1-0.3c-0.2,0-0.7,0.4-0.5,0.2c0.1-0.1,0.5-0.2,0.3-0.3
			c-0.4,0.2-1.3,0-1.6,0.3 M44.5,35.9c-0.4-0.3-0.6-0.2-1.2-0.3 M17.7,35.2c-2-0.9-3.7-2.8-3.3-5.6c0.4-3.3,3.9-5.5,7.5-4.1
			c0.2-0.3,0.4-0.7,0.5-1.1c-0.2,0.1-0.2-0.2-0.3-0.3c0.1-0.2,0.4,0,0.4-0.2c1.1-4,2.5-7.9,5.5-10c-0.8-0.6-0.3-1.8,0.5-1.9
			c-0.3,0.1-0.4-0.1-0.8-0.1c-0.1-0.3,0.1-0.3,0.1-0.5c2.5-0.1,4.8-1.3,6.8-1.1c0-0.3-0.3-0.3-0.3-0.6c0.1-0.6,0.7-0.6,0.9-0.9
			c0.4,0.2,0.3,0.9,0.5,1.3c0.4-0.2,0.9,0.1,1.3-0.1c-0.1,0.7-0.9,0.5-1.2,0.9c-0.1,0.3,0.2,0.3,0.1,0.7c0.5,0.2,0.9,0.6,1.8,0.4
			c0.1,0.4-0.5,0.1-0.5,0.4c6.3,0.8,11,5.4,10.4,12.8c-0.3,3.7-2.2,5.9-4.2,8c-0.9,0.4-1.6,1-2.5,1.4"/>
		<path fill="#EBE4DE" d="M38.8,19c-0.1,0.1-0.1,0.2-0.2,0.3C38.7,19.5,38.8,19.1,38.8,19"/>
		<path fill="#EBE4DE" d="M38.7,14.8c0.1-0.5-0.9,2.2-0.3,0.8C38.4,15.5,38.6,15.1,38.7,14.8"/>
		<path fill="#EBE4DE" d="M40.2,15.7c0.1-0.2-0.2,0.3-0.3,0.4c-0.3,0.8-0.9,1.8-1.1,2.7c-0.1,0.3,0.2-0.4,0.3-0.4
			C39.6,17.6,40,16.6,40.2,15.7"/>
		<path fill="#EBE4DE" d="M39.2,15.6c-0.2,0.3-0.4,0.7-0.5,1.1C38.9,16.3,39.1,16,39.2,15.6"/>
		<path fill="#EBE4DE" d="M32.6,16.1c-0.2-0.2,0.1,0.3,0,0.4C32.8,16.5,32.6,16.3,32.6,16.1"/>
		<path fill="#EBE4DE" d="M38.7,16.7c-0.2,0.3-0.4,0.7-0.5,1.1C38.3,17.5,38.6,17.1,38.7,16.7"/>
		<path fill="#EBE4DE" d="M28.9,17.3C28.7,17.2,29.5,17.8,28.9,17.3"/>
		<path fill="#EBE4DE" d="M29.4,17.7C29.2,17.6,30.1,18.2,29.4,17.7"/>
		<path fill="#EBE4DE" d="M30.5,18.3c-0.2-0.2,0.2,0.4,0.3,0.5c-0.4-0.2-0.7-0.5-0.9-0.8c0.1,0.4,1,0.8,1.5,1.4
			c0.3,0.3,0.8,1.2,0.4,0.6C31.6,19.4,31,18.9,30.5,18.3"/>
		<path fill="#EBE4DE" d="M43.5,21.7C42.3,22.2,44.5,21.3,43.5,21.7"/>
		<path fill="#EBE4DE" d="M31.8,19.7C31.5,19.6,32.2,20.1,31.8,19.7"/>
		<path fill="#EBE4DE" d="M28.1,20.1C28.1,20.2,29.1,20.6,28.1,20.1"/>
		<path fill="#EBE4DE" d="M30.7,21.5c-0.4-0.1-1.1-0.6-1.6-0.8c-0.2-0.2,0.3,0.2,0.3,0.3c-0.8-0.3-1.5-0.6-2.3-0.8
			c1.1,0.6,2.5,0.7,3.4,1.4C30.5,21.5,30.5,21.5,30.7,21.5"/>
		<path fill="#EBE4DE" d="M40.6,20.5C40.3,20.4,40.1,20.9,40.6,20.5"/>
		<path fill="#EBE4DE" d="M27.7,21.2c0.2,0.2,0.7,0.2,0.9,0.3C28.4,21.3,28.1,21.2,27.7,21.2"/>
		<path fill="#EBE4DE" d="M28.7,21.5c0.3,0.2,0.8,0.2,1.2,0.3c0.2,0.1,0.2-0.1,0.1-0.1C29.6,21.7,29.2,21.5,28.7,21.5"/>
		<path fill="#EBE4DE" d="M38.4,23.7c0.3,0.2,0.9,0.2,1.4,0.3c0.2,0.1,0.2-0.1,0.1-0.1C39.3,24,39.1,23.7,38.4,23.7"/>
		<path fill="#EBE4DE" d="M41.5,22.6c0.2-0.2-0.3,0.1-0.3,0.1C41,22.8,41.5,22.7,41.5,22.6"/>
		<path fill="#EBE4DE" d="M26,22.7c0.1,0.1,0.4,0.2,0.6,0.2C26.7,22.8,26.1,22.7,26,22.7"/>
		<path fill="#EBE4DE" d="M28.6,23.2c0,0.1,0.6,0.2,0.7,0.3C30.1,23.6,29.3,23.2,28.6,23.2"/>
		<path fill="#EBE4DE" d="M30,23.5c-0.2,0.1,0.4,0.1,0.5,0.2C30.7,23.6,30.2,23.5,30,23.5"/>
		<path fill="#EBE4DE" d="M37.9,29c0.1-0.8-0.8-1.4-1.1-2.1C36.9,27.6,37.8,28.2,37.9,29"/>
		<path fill="#EBE4DE" d="M39.1,25.1c-0.2-0.1,0.5,0.4,0.8,0.4c0,0.1-0.1,0.1-0.2,0.1c0.4,0.1,0.8,0.3,1.1,0.5
			c0.2,0-0.1-0.2-0.2-0.2c0.1-0.2,0.2,0.1,0.4,0C40.6,25.9,39.7,25.4,39.1,25.1"/>
		<path fill="#EBE4DE" d="M39.1,25.5c-0.2,0.1,0.5,0.1,0.4,0.3c0.1-0.1-0.1-0.2,0.1-0.2C39.6,25.6,39.3,25.6,39.1,25.5"/>
		<path fill="#EBE4DE" d="M30.5,25.8C31,25.6,30.2,26,30.5,25.8"/>
		<path fill="#EBE4DE" d="M39.8,25.8c-0.2,0.1,0.1,0.1,0.1,0.3c-0.3-0.1-0.6-0.2-0.8-0.3c-0.2-0.1-0.2,0.1-0.1,0.1
			c1.3,0.3,2.2,1,3,1.8c-0.1-0.5-1.1-0.7-1.3-1.2c0.1,0.1,0.2,0.1,0.3,0.1C40.6,26.3,40,26.3,39.8,25.8"/>
		<path fill="#EBE4DE" d="M28,26.4c0.2-0.2-0.3,0.1-0.4,0.1C27.4,26.7,28,26.6,28,26.4"/>
		<path fill="#EBE4DE" d="M27.4,26.7c0.2-0.2-0.3,0.1-0.4,0.1C26.7,27,27.2,26.8,27.4,26.7"/>
		<path fill="#EBE4DE" d="M18,27.3c-0.2-0.3,0.1,0.3,0.2,0.4C18.4,28,18.2,27.6,18,27.3"/>
		<path fill="#EBE4DE" d="M39.8,28.1c0.4,0.3,1,1.1,1.6,1.3C41.3,29.2,40.3,28.4,39.8,28.1"/>
		<path fill="#EBE4DE" d="M19.3,30.8C19.2,30.8,19.2,30.9,19.3,30.8c-0.2,0.4-1.4,1.4-0.6,0.7C18.9,31.4,19.5,31.2,19.3,30.8"/>
		<path fill="#EBE4DE" d="M29.1,28.8c-0.1-0.2-0.3,0.2-0.6,0.2C28.2,29.3,28.9,28.8,29.1,28.8"/>
		<path fill="#EBE4DE" d="M29.4,28.9c-0.3,0.1-1.5,1.4-0.3,0.4C29.1,29.3,29.1,29.2,29.4,28.9"/>
		<path fill="#EBE4DE" d="M33,29c-0.5,0.8-0.7,1.7-1.2,2.5C32.2,31.1,32.6,29.8,33,29"/>
		<path fill="#EBE4DE" d="M17.3,29.7c-0.5-0.3-1.1-0.5-1.7-0.7C16.2,29.3,16.7,29.6,17.3,29.7"/>
		<path fill="#EBE4DE" d="M38.1,29.2c-0.2,0.1,0.2,1,0.3,1.4c0,0.2,0.1,0.2,0.1,0C38.3,30.2,38.2,29.8,38.1,29.2
			C38.1,29.3,38.1,29.3,38.1,29.2"/>
		<path fill="#EBE4DE" d="M32.3,29.3c-0.1,0.2-1.2,1.2-1.3,1.6c0.2-0.3,0.6-0.6,0.8-0.9C31.9,30.4,32.1,29.7,32.3,29.3"/>
		<path fill="#EBE4DE" d="M28.1,29.3C27.9,29.1,27.6,29.7,28.1,29.3"/>
		<path fill="#EBE4DE" d="M38.3,29.3c0.2,0.5,0.3,0.9,0.7,1.3C38.9,30.3,38.7,29.6,38.3,29.3"/>
		<path fill="#EBE4DE" d="M34.6,29.3c-0.3,0.2-0.2,0.8-0.4,1.2C34.5,30.2,34.5,29.7,34.6,29.3"/>
		<path fill="#EBE4DE" d="M23,29.7C23.5,29.4,21.8,30.1,23,29.7"/>
		<path fill="#EBE4DE" d="M34.1,29.7c-0.1,0-0.6,0.9-0.7,1.4C33.5,31.1,34,30.2,34.1,29.7"/>
		<path fill="#EBE4DE" d="M36.9,30.2C36.7,29.7,37.2,30.8,36.9,30.2"/>
		<path fill="#EBE4DE" d="M21.4,30.1C21.6,30.3,21.9,29.8,21.4,30.1"/>
		<path fill="#EBE4DE" d="M31.7,30.3C31.8,30.1,31.5,31,31.7,30.3"/>
		<path fill="#EBE4DE" d="M18.2,30.4c-0.2-0.2-0.7,0.2-0.9,0.2C17.4,30.8,17.8,30.4,18.2,30.4"/>
		<path fill="#EBE4DE" d="M41.2,30.6C41,30.6,41.8,31.2,41.2,30.6"/>
		<path fill="#EBE4DE" d="M22.1,30.8c0.1,0.1,0.2,0.1,0.3,0.2C22.5,30.9,22.2,30.8,22.1,30.8"/>
		<path fill="#EBE4DE" d="M16.6,30.8C17.1,30.6,15.9,31.1,16.6,30.8"/>
		<path fill="#EBE4DE" d="M39.3,30.8c-0.2,0.2,0.9,1.6,0.6,1.2C39.8,31.5,39.4,31.3,39.3,30.8"/>
		<path fill="#EBE4DE" d="M30.8,31C30.9,30.9,30.3,31.8,30.8,31"/>
		<path fill="#EBE4DE" d="M22.5,31c0.1,0.1,0.2,0.1,0.3,0.2C23,31.1,22.6,30.9,22.5,31"/>
		<path fill="#EBE4DE" d="M22.4,32.2c-0.3-0.3-0.9-0.5-1.4-0.7C21.4,31.8,21.9,31.9,22.4,32.2"/>
		<path fill="#EBE4DE" d="M39.3,31.7c-0.2,0.1,0.1,0.2,0,0.3C39.5,32,39.3,31.7,39.3,31.7"/>
		<path fill="#EBE4DE" d="M19.1,31.7c0.1-0.2-0.3,0.5-0.5,0.6C18.7,32.4,19.1,32.1,19.1,31.7"/>
		<path fill="#EBE4DE" d="M36.8,32.2C36.6,31.2,37.1,33.4,36.8,32.2"/>
		<path fill="#EBE4DE" d="M31.7,31.9C31.9,31.5,31.5,32.4,31.7,31.9"/>
		<path fill="#EBE4DE" d="M33.7,31.9c-0.1,0.2-0.2,0.4-0.3,0.7C33.5,32.4,33.7,32.3,33.7,31.9"/>
		<path fill="#EBE4DE" d="M18.2,32C18.2,31.9,17.6,32.8,18.2,32"/>
		<path fill="#EBE4DE" d="M32.8,32.1C32.7,32.1,32.4,33.3,32.8,32.1"/>
		<path fill="#EBE4DE" d="M20.9,32.3C20.6,31.8,21.4,32.9,20.9,32.3"/>
		<path fill="#EBE4DE" d="M31.7,32.2c-0.2,0.1-0.2,0.3-0.3,0.5C31.5,32.6,31.6,32.4,31.7,32.2"/>
		<path fill="#EBE4DE" d="M33.3,32.9c-0.2,0.2-0.2,0.7-0.4,0.9C33,34.1,33.2,33.2,33.3,32.9"/>
		<path fill="#EBE4DE" d="M37,33.2C36.8,33,37.3,33.8,37,33.2"/>
		<path fill="#EBE4DE" d="M39.8,33.3C39.6,32.8,40,33.7,39.8,33.3"/>
		<path fill="#EBE4DE" d="M44.3,35.9c-0.2-0.1-0.5-0.2-0.8-0.2c0,0.1,0.1,0.1,0.2,0.1"/>
	</g>
</g>
</svg>
