<?xml version="1.0" encoding="UTF-8"?>
<svg version="1.1" viewBox="0 0 2048 498" width="1754" height="427" xmlns="http://www.w3.org/2000/svg">
<path transform="translate(1385,139)" d="m0 0h39l22 3 20 6 13 7 12 11 7 14 2 11-1 12-2 8 3 7 1 13h32l5 3v8l-5 12-12 19-8 16-1 4v7l2 3h6l9-6 8-9 11-18 8-16 9-16 8-7 6-2h7l-6 7-9 14-11 23-4 13-1 11 2 5h8l9-6 8-10 11-18 7-19 5-22 4 1 3 4 1 8-2 14 9-11 10-9 10-5 4-1h7l6 3 2 3v10l-5 12-8 15-7 12-4 11v6l2 3 9-1 10-9 11-16 6-12 4-10 9-13 9-8 8-4 7-2h13l6 4 2 4v10l-5 10-6 6-7 1-2-2v-6l4-5 5-3 6-2v-8l-3-4-9-1-7 3-8 7-6 9-5 10-4 14-1 14 3 9 5 5 9 1 9-3 6-4 4-2 2-4 8-10 9-16 8-16 8-10 9-7 10-4h11l5 3 3 4v12l-6 12-8 8-9 5-10 1-10-4-2 14v7l3 9 5 4h12l10-5 10-10 4-11 6-7 3-3 9-16 10-14 9-10 10-8 6-3h7l2 2-1 7-6 3-9 1-1 9 6 28-1 13-4 11-6 8-4 4 9-1 9-6 7-7 4-11 6-7 3-3 9-16 10-14 9-10 8-7 8-4h6l3 3-1 6-5 3-10 2-1 9 6 28-1 12-4 11-6 8-4 4 9-1 9-6 8-8 9-14 4-4-2 6-8 12-8 10-8 6-9 3h-6l-5-1-9 3h-11l-8-4-4-7v-4l-8 7-8 5-3 1h-10l-3-1-9 3h-13l-7-4-4-7v-4l-8 7-5 4-9 4h-17l-8-4-5-6-2-6-1-11-8 11-8 9-10 6-7 2h-13l-9-4-5-6-3-8-1-10-7 10-9 10-6 5-5 2h-10l-6-4-3-4-1-3v-7l4-11 10-18 8-13 3-6v-7l-1-1h-7l-8 5-9 9-12 17-14 27-6 12-6 3h-7v-3l6-13-9 11-8 5-3 1h-10l-7-4-3-7v-11l-8 11-9 8-5 3-4 1h-7l-6-3-4-6-1-9 3-10 6-11 14-18 3-6v-7l-2-2-7-1h-16l-5 15-8 16-6 11h-2l1-6 8-15 6-17 1-5-6-7v-2l-8 7-10 8-17 8-14 4-7 1h-24l-15-4-3-1-2 6-10 20-10 16-10 13-9 9-15 10-11 4-5 1h-19l-8-4-3-5 1-6 3-2 2 7 5 4 8 2 12-1 12-6 10-9 8-9 13-21 11-22 10-19 12-23 14-21 9-10 5-5 8-7 10-6 6-2h13l1 2-13 2-8 4-10 9-10 13-9 15-11 21-7 17 9 2 13 2h11l15-3 12-5 10-6 10-9 7-11 3-9 1-14-2-11-6-12-7-8-11-7-14-6-16-4-18-2h-19l-20 3-21 7-11 6-9 7-7 8-7 14-2 6v15l4 8 5 4 5 2h17l5-1v2l-6 2-7 1h-8l-13-4-9-8-3-7-1-5v-8l3-12 4-8 7-9 8-7 18-10 15-5 18-4zm446 91-9 9-12 18-6 11v2l5 2 2 4-8 1-7 8-2 5v8l3 5 6 3 9-1 6-4 5-6 4-10 2-11 2-37 2-7zm65 0-10 10-10 15-7 13v2l5 2 2 4h-6l-5 3-5 8-1 3v9l4 5 5 2 9-1 8-6 5-8 3-11 1-7 1-30 2-10 1-3zm-119 1-9 6-9 11-8 15 1 4 6 3 9-2 9-6 7-8 3-8v-11l-4-4z" fill="#4B4744"/>
<path transform="translate(818,317)" d="m0 0 23 1 40 3 21 2h38l3 1h7l1 5h2v2l-10 3-10 1h-13l-20-2-12-2h-16l-32 2-28 2h-109l-13 1h-127l-50-1h-46l-9-1h-78l-71 3h-44l-19-1-51-1-10 1h-14l-2-4-2-1 5-5h49l5 1h11l10 1 57-1 34-1 19-3h7l1 1 63 1 7 1 18 1h44l20-2 6-1 67-3h32l16 1h25l43-3 62-1h35zm-58 3v1h5v-1zm67 0-11 1v1h22v-1zm-135 2m111 0-4 2h9l5-1v-1zm56 0v1l20 2h13v-1l-16-2zm-278 1v1h27v-1zm103 0v1h5v-1zm82 0v1l14 1h11l3-2zm-234 4-14 1v1h29l12-1v-1zm293 0v1l10 1 1-2zm-474 1 3 2 42-1v-1zm-53 1v1h14v-1zm32 0m6 0m397 0v1h5v-1zm40 0v1h10v-1zm-591 1m255 0m510 0 1 2zm-487 1v1h16v-1zm277 0v1h8v-1zm204 0m-389 1m227 0v1h19v-1zm-448 1v1h12v-1zm269 0 1 2h18l-3-2z" fill="#6C6763"/>
<path transform="translate(256,166)" d="m0 0 9 1 5 5 4 6 6 13 5 16 3-4 12-22 8-14 4-1h7l4 2-1 11-1 32v46l4 2 1 3-2 4-16-1-3-1-1-6h4v-59l-1-5-6 12-6 17h-2l-2 5 2 1-5 4-3 1-5-6-10-18-1-3h-2l-1 14v37l2 3-2 3h-11l-5-2 1-5 2-36v-45l-5-1-2-2 1-4zm-4 2v2l3-1zm10 0v2l2-1zm7 7m-7 1 1 2zm8 0 1 2zm-12 1m5 1 1 4 1-2zm8 0m-16 3 1 3 1-3zm11 0m1 1 1 2zm-7 1m-5 3 1 2zm18 1 2 3 2-1zm26 0-7 11 1 3 7-12zm-30 1 2 5 1-2-1-3zm41 0 1 2zm-33 2m-17 1v9h2v-7zm12 2v4l2-1zm29 3 1 2zm-1 2-7 11-4 12 1 3 4-8 4-11 3-5zm-36 3-1 1v13l2-4v-10zm7 1 2 6 2 1-2-6zm6 2m-7 1 1 2zm19 0-3 6 1 2 4-6v-2zm-18 2 1 2zm1 2m3 0 1 2zm0 5m2 0 2 2v-2zm-1 1 1 2zm3 1 1 2zm-2 1 1 2zm3 1m-2 1 2 6 2-1-3-5zm-23 5-1 7 2-4zm31 4-2 1 1 3 3-2v-2zm-28 4 1 2zm0 7 1 2zm-1 7v8h1v-8zm-2 9m63 0 1 4zm-66 3-1 3h2zm57 0m-51 1 2 3 3-1z" fill="#706C68"/>
<path transform="translate(633,163)" d="m0 0 7 1v6l-4 1 1 13 1 71 4 4-1 1h-8v6l-2-1v-4l-8 1-1-1v-5h5l-2-31-1-6h-13l-9 1v32l3 3 3 2v3l-2 1h-16v-8l2-7v-23l-2-26-1-26-2-1 2-5 3-1h9l5 1 1 5-5 2v33l23 1v-31h-4l2-10 1-1zm-31 3m-10 6 1 2zm3 0 2 11h1v-7l-1-4zm33 8v9h1l1-9zm-7 28-2 2h6v-2zm-15 2v1h5v-1zm7 0m-5 2-1 2h2zm-1 4m19 1 1 10h1v-9zm9 7v20h1v-20z" fill="#6D6965"/>
<path transform="translate(441,162)" d="m0 0 1 4 8 1 1 3-4 4-1 22h2l2-5 10-15 8-9 3-2h7l1 1v10l-6 3-6 9-10 16-4 8 8 16 13 28 6 2v4l-8 2h-3l-9-12-10-17-3-4-1 24 4 2-1 5-6 2h-7l-5-3v-4l5-1-1-7v-9l1-3-3-39v-26l-3-2 2-4h9zm-5 6m12 1m28 4v2l2-1zm-4 3m-20 26m-1 1 1 2zm-3 13m-2 6 1 3v-3zm-7 18 1 4z" fill="#696561"/>
<path transform="translate(688,164)" d="m0 0h8l14 3 4 4 2 11 3 26v41l-3 6-3 3-12 5-5 1h-7l-8-5-6-7-4-10v-46l4-18 5-10zm-3 11m4 0-4 5-1 4v14l-1 7-1 30-1 2 6 13 11 2h7l3-12-1-43-2-17-4-4zm17 1 1 10h1v-10zm6 6 1 7h1l-1-7zm-30 8v9h1v-9zm-4 8-1 1v8h1l1-9zm31 18m-35 10 1 2 1-2zm6 12 1 3zm-7 2 1 2zm8 1 1 3zm-7 1 1 6 3 3-3-9zm5 5v2l2-1zm4 1m34 0m-33 2 1 2zm1 2 2 6 2 1-2-6zm-3 1 2 4-1-4zm9 0 3 2 4-1zm18 2 2 2 2-2zm-13 2 1 3h2v-2z" fill="#706B68"/>
<path transform="translate(368,164)" d="m0 0h16l8 4 3 3 3 15 2 20v28l-3 22-2 5-5 3-11 2-9-1-6-5-5-10-3-12-4-21v-25l3-14 4-10zm7 11-8 2-3 5-1 3v14l2 29 4 24 2 3 12-1 5-1 3-12v-22h-2l1-2v-15l-2-10-1-13-1-3-3-1z" fill="#6A6561"/>
<path transform="translate(195,164)" d="m0 0h10l6 4 4 5 4 11v10l-2 3h-8l-2-1-1-13-2-5-7-2-7 3-2 5v9l3 6 8 7 11 4 5 5 4 13v22l-4 9-5 5-10 2h-12l-8-4-5-12-1-9 5-4h6l2 7 2 9 5 2h9l4-2 1-4v-11l-4-11-6-8-10-6-8-5-5-10-1-4v-10l4-11 4-4 9-4zm5 2 1 2 2-1zm-8 2m20 14v3h2l-1-3zm-3 3 1 6h1v-6zm-1 2v7h1v-7zm-23 10 2 2v-2zm-5 5 1 2zm4 1-1 3h5l-2-3zm18 13 1 2zm1 2m1 1m6 0m1 1m1 1m3 2 1 2zm-8 1 1 3 2-1zm1 5 1 5 1-4zm-21 25 1 3zm11 4m4 3v2l5-1v-1z" fill="#6C6764"/>
<path transform="translate(516,165)" d="m0 0h10l4 1h26l2 5-1 8-4 4-3-1-3-5-11-2-6 1-2 7v14l2 13 7-1h13v10l-2-1v-3h-2v4h2v2l-22 1v24l2 7 2 2h10l11-1 1-5h5l2 5v5l3 1-2 1-1 4-6 1h-19l-9-1-1 3-3-3-3 2-1-2-2 3v-5l-5-1-1-3-3-3 3-2h6v-39-3l1-7-1-29-5-1-2-7 3-2zm37 2 1 2 1-2zm-26 39 1 3zm1 5m-8 28v5h2v-5zm5 16m31 0 1 2zm-10 2v1h7v-1zm8 5v2h3v-2zm-5 0-3 2h5v-2z" fill="#6C6764"/>
<path transform="translate(764,161)" d="m0 0 7 5-2 4-1 1-1 39v30l3 9 5 3 6-1 4-6 2-9v-51l-1-11-4-4 1-6 12-1 5 2v4l-2 2-1 26v14l1 8v22l-3 11-6 7-5 2h-13l-9-3-4-5-2-4-1-6v-20l1-49-4-5 1-6h11zm32 4-1 2 3-1zm-31 6m27 23m3 36v13h1l1-13zm-1 17m-1 1-3 6 3-1 1-5zm-31 5v3l2-1z" fill="#6E6966"/>
<path transform="translate(850,162)" d="m0 0 11 2 6 2 8 8 1 2v11l-5 3-4-1-3-3-2-12-4-2h-8l-5 5-1 8 2 11 3 7 5 3 11 7 6 4 5 10 1 5v15l-3 8-5 5-4 3-8 2-7 1-10-5-6-7-3-7v-13l2-1h7l5 12 4 6 7 1 4-4 2-6v-13l-4-7-6-5-6-3-6-7-5-10-1-3v-16l4-8 7-6zm3 3m1 1 4 1zm4 1m15 12m-5 4m-24 18m1 1m-2 5 3 3v-3zm11 2 2 4v-3zm-6 2 1 3v-3zm9 2m5 1 3 3-1-3zm9 16m1 3 1 8 1-4zm-33 3m-5 4m33 5m-24 2 1 2zm23 1 1 3-1 2h3l1-4zm-22 1m18 0 1 2zm-1 2m-4 3m13 1m-26 4 2 2v-2zm19 0 1 2 2-2z" fill="#6E6966"/>
<path transform="translate(930,161)" d="m0 0h8l12 1 2 6v12h-7l-2-1v-6h-16l-5 1 1 30 6-1h11l4 4-1 6-6 1h-1l-10 2-4 4v30l17 1 2-6h7v12l-1 2-9 1h-1-18l-4 1-8-3-1-4 5-3 1-4v-8l-2-13-1-53-4-2v-6l2-3 16 2zm9 3 1 2zm3 1 2 2v-2zm-29 1m-7 2m40 8v2h3v-2zm-10 30m5 0 1 3v-3zm-28 14v10h1v-10zm33 32 1 2z" fill="#6B6763"/>
<path transform="translate(1260,139)" d="m0 0h9l1 7-4 8-9 11-11 11-2-1 11-11 8-10 4-7v-6l-7 1-9 9-11 16-11 20 2 1-4 2-2 6-1 4 7-8 5-4 2-1h8l2 2v7l-8 16-3 7-1 5 7-2 7-8 11-20 7-6 4-2h7l3 3 1 5-4 8-5 5-8 2-5-2v16l7 1 7-3 8-9 3-3-2 6-8 9-7 3h-8l-5-3-3-7-1-4-2 5-8 8-2 1h-6l-4-4v-8l6-11 6-10v-4l-7 1-7 7-11 18-5 9-5 1 3-10 10-24 9-19 9-14 9-11 11-8zm16 48-5 3-6 7-3 6 2 4 7-1 7-6 2-6-1-6z" fill="#4F4B48"/>
<path transform="translate(1173,144)" d="m0 0h13l18 3 20 5h12l3-1 1-5h1v5l-5 4-12 1-6 4-10 14-8 16-8 17-9 14-6 7-10 7-10 3h-7l-6-3-1-4 2-2 2 4 9 2 7-2 10-9 7-10 14-27 8-14 7-9 7-7 3-2-25-4h-19l-12 2-10 5-7 8-2 5v9l2 4 2 1 9-1 5-6 1-3 1-11 2 2v11l-4 7-5 3-8 1-5-3-4-5-1-3v-7l4-10 8-8 10-5z" fill="#514D4A"/>
<path transform="translate(1049,134)" d="m0 0h4v229l-5-1v-227z" fill="#4A4643"/>
<path transform="translate(1272,186)" d="m0 0h7l3 3 1 5-4 8-5 5-8 2-5-2v16l7 1 7-3 8-9 3-3-2 6-8 9-7 3h-8l-5-3-3-7-1-4-2 5-8 8-5-1v-1l6-2 7-8 11-20 7-6zm4 1-5 3-6 7-3 6 2 4 7-1 7-6 2-6-1-6z" fill="#54504D"/>
<path transform="translate(1238,187)" d="m0 0h8l2 2v7l-8 16-3 7v5l3 3h-6l-4-4v-8l6-11 6-10v-4l-7 1-5 5-2-1 8-7z" fill="#4D4946"/>
<path transform="translate(1589,199)" d="m0 0h8l3 5-1 6-5 4-7 1-4-4v-6l4-5z" fill="#4C4845"/>
<path transform="translate(1736,333)" d="m0 0h14l5 5-1 6-5 2 6 8v2l-4-2-5-6-7-1v9h-2l-1-2zm3 2v10h9l4-2 1-4-2-3-3-1z" fill="#4F4B48"/>
<path transform="translate(1791,333)" d="m0 0h12l5 3 3 4 1 5-3 7-4 3-4 1h-9l-1-1zm3 2v19h8l5-3 2-3v-7l-5-5-3-1z" fill="#54504C"/>
<path transform="translate(1582,333)" d="m0 0h10l5 4 2 5-1 8-6 6h-10l-5-4-2-5 1-8 4-5zm2 2-5 4-1 2v8l5 5 5 1 6-3 2-4v-7l-4-5-2-1z" fill="#5C5854"/>
<path transform="translate(1710,333)" d="m0 0h10l5 5 2 4-1 7-5 6-2 1h-9l-5-4-2-5v-6l4-6zm2 2-5 4-1 2v8l5 5h8l4-4 1-2v-7l-4-5-2-1z" fill="#5A5653"/>
<path transform="translate(1652,333)" d="m0 0h9l3 2-1 3-4-2h-7v5l9 3 4 3v6l-4 3h-9l-4-3v-2l6 2h6l2-4v-2l-11-3-2-2v-6z" fill="#544F4C"/>
<path transform="translate(1765,333)" d="m0 0h17v2h-15v8h9l4 2h-13v9h15v2h-17z" fill="#534F4C"/>
<path transform="translate(1608,333)" d="m0 0h17v2h-14v9h13v2h-13v10l-3-1z" fill="#827F7D"/>
<path transform="translate(1865,333)" d="m0 0h10l4 4-2 1-4-2h-7l-4 4v9l4 4h7l6-2-3 4-3 1h-8l-5-4-2-4v-7l3-5z" fill="#524E4B"/>
<path transform="translate(1675,333)" d="m0 0h2l1 10h12l1-10h2v23h-2v-11h-14v11h-2z" fill="#585552"/>
<path transform="translate(1888,333)" d="m0 0h2l1 10h12l1-10h2v23h-2v-11h-14v11h-2z" fill="#4B4744"/>
<path transform="translate(1930,269)" d="m0 0 1 2-7 12-8 10-5 5-6 5-6 2 2-4 9-6 8-8 9-14z" fill="#4E4A46"/>
<path transform="translate(1834,333)" d="m0 0h17l1 2h-8v21h-3v-21h-7z" fill="#5E5956"/>
<path transform="translate(302,199)" d="m0 0 1 2-8 22-1-2-3 1 3-10 6-12z" fill="#787370"/>
<path transform="translate(1164,164)" d="m0 0 2 2v11l-4 7-5 3-8 1 1-2 8-3 4-5 1-3z" fill="#615D5A"/>
<path transform="translate(1736,333)" d="m0 0h14v2h-11v10h-2v9h-1z" fill="#868381"/>
<path transform="translate(1582,333)" d="m0 0h10l5 4 1 2v7l-2 1-2-8-4-3h-6l-3 1z" fill="#4C4744"/>
<path transform="translate(1860,342)" d="m0 0h1l1 7 4 4h7l6-2-3 4-3 1h-8l-5-4-2-6z" fill="#56524F"/>
<path transform="translate(1267,148)" d="m0 0 1 3-10 13-12 12-2-1 11-11 8-10z" fill="#54504D"/>
<path transform="translate(1285,209)" d="m0 0 1 2-6 9-6 5-5 2h-8v-1h7v-2l7-3 8-9z" fill="#5F5B57"/>
<path transform="translate(1609,333)" d="m0 0h16v2h-14v9h-2z" fill="#4B4744"/>
<path transform="translate(1144,229)" d="m0 0 5 5 11 1 2 2-5 1h-7l-6-3-1-4z" fill="#5E5A57"/>
<path transform="translate(1904,333)" d="m0 0h2v23h-2l-1-13z" fill="#45413E"/>
<path transform="translate(1691,333)" d="m0 0h2v23h-2l-1-13z" fill="#45413E"/>
<path transform="translate(1822,333)" d="m0 0h2v23h-2z" fill="#4D4945"/>
<path transform="translate(1652,333)" d="m0 0h9l3 2-1 3-4-2h-7l-1 2h-2l2-4z" fill="#625E5B"/>
<path transform="translate(1704,342)" d="m0 0h1l3 9 9 4v1h-7l-5-4-1-2z" fill="#4D4845"/>
<path transform="translate(1580,334)" d="m0 0 2 1-3 6-1 6h-3l1-8z" fill="#5C5855"/>
<path transform="translate(1272,186)" d="m0 0h7l3 3 1 5-2 3h-2v-9l-7-1z" fill="#5C5855"/>
<path transform="translate(1803,334)" d="m0 0 4 1 4 5 1 5-3 1-2-7-6-3z" fill="#66625F"/>
<path transform="translate(1576,347)" d="m0 0h2l3 5 9 3v1h-8l-5-4z" fill="#524E4B"/>
<path transform="translate(1750,334)" d="m0 0 4 2 1 6-4 4-3-2 3-1 1-4-1-2-3-2z" fill="#595451"/>
<path transform="translate(1909,296)" d="m0 0m-1 1m-2 1 2 1-1 3-6 3h-2l2-4z" fill="#595552"/>
<path transform="translate(1915,290)" d="m0 0h2l-2 4-5 5-3 2 2-4z" fill="#534F4C"/>
<path transform="translate(1732,278)" d="m0 0 1 3-4 6-4 1 2-4 3-5z" fill="#595552"/>
<path transform="translate(1164,164)" d="m0 0 2 2v11l-3 1z" fill="#54504C"/>
<path transform="translate(1877,351)" d="m0 0 2 1-3 3-3 1h-7v-2l9-2z" fill="#504C49"/>
<path transform="translate(1650,337)" d="m0 0 2 4 7 3v1h-6l-4-3z" fill="#534E4B"/>
<path transform="translate(755,318)" d="m0 0h13v3h-9v-2z" fill="#C8C6C5"/>
<path transform="translate(1484,268)" d="m0 0 1 3-4 7h-2l1-6z" fill="#595552"/>
<path transform="translate(1241,177)" d="m0 0 2 1-4 4-2-1z" fill="#57524E"/>
<path transform="translate(1234,183)" d="m0 0 2 1-4 2z" fill="#5E5955"/>
<path transform="translate(1117,245)" d="m0 0 2 1-4 1z" fill="#FEFEFE"/>
<path transform="translate(513,219)" d="m0 0 2 1z" fill="#B0AEAC"/>
<path transform="translate(1286,207)" d="m0 0" fill="#B0AEAC"/>
<path transform="translate(1163,162)" d="m0 0" fill="#B0AEAC"/>
<path transform="translate(293,223)" d="m0 0" fill="#FEFEFE"/>
<path transform="translate(550,219)" d="m0 0" fill="#FEFEFE"/>
<path transform="translate(1231,186)" d="m0 0" fill="#45413E"/>
<path transform="translate(1236,182)" d="m0 0" fill="#45413E"/>
<path transform="translate(1243,176)" d="m0 0" fill="#45413E"/>
</svg>
